<?xml version="1.0" encoding="UTF-8" standalone="no"?>
<!DOCTYPE svg PUBLIC "-//W3C//DTD SVG 1.1//EN" "http://www.w3.org/Graphics/SVG/1.1/DTD/svg11.dtd">
<svg xmlns="http://www.w3.org/2000/svg" version="1.1" viewBox="0 0 500 500">
<g stroke-width="2.00" fill="none" stroke-linecap="butt">
  <path stroke="#fee66e" vector-effect="non-scaling-stroke" d="M 390.16 280.71 L 343.36 280.61 A 2.41 2.29 37.04 0 0 342.83 280.67 Q 338.24 281.68, 333.53 281.73"/>
  <path stroke="#92895c" vector-effect="non-scaling-stroke" d="M 333.53 281.73 L 344.3 276.65"/>
  <path stroke="#92895c" vector-effect="non-scaling-stroke" d="M 348.7 272.32 C 351.56 266.51, 351.26 264.25, 351.26 256.73 Q 351.25 251.97, 350.22 249.65 C 345.93 239.98, 332.02 235.37, 322.25 235.18 Q 312.86 235, 287.57 235.29"/>
  <path stroke="#92895c" vector-effect="non-scaling-stroke" d="M 281.64 234.74 Q 279.8 235.28, 278.38 235.12 A 0.43 0.43 79.78 0 0 277.95 235.74 L 284.2 247.89 A 3.48 3.47 -58.95 0 1 284.6 249.51 L 284.62 280.14"/>
  <path stroke="#fee66e" vector-effect="non-scaling-stroke" d="M 284.62 280.14 L 269.78 280.24 A 1.84 1 -3.12 0 0 269.52 280.25 L 264.88 280.69"/>
  <path stroke="#fee66e" vector-effect="non-scaling-stroke" d="M 261.21 281.05 Q 255.03 279.47, 248.49 281.16"/>
  <path stroke="#92895c" vector-effect="non-scaling-stroke" d="M 248.49 281.16 L 248.5 250.53 A 3.56 3.56 57.84 0 1 248.85 248.99 L 254.95 236.62 A 0.31 0.31 -76.95 0 0 254.67 236.17 L 217.98 236.17 A 0.49 0.49 -13.59 0 0 217.54 236.88 L 223.5 248.47 A 3.59 3.5 31.83 0 1 223.91 250.12 L 223.91 281.11"/>
  <path stroke="#fee66e" vector-effect="non-scaling-stroke" d="M 223.91 281.11 Q 214.37 280.13, 210.47 280.13 Q 194.01 280.13, 177.34 280.13 A 1.27 1.25 9.29 0 0 176.14 280.98 Q 174.86 284.77, 171.87 287.98"/>
  <path stroke="#92895c" vector-effect="non-scaling-stroke" d="M 171.87 287.98 L 185.4 251.93 A 11.68 11.42 -16 0 1 187.18 248.8 L 197.65 235.68 A 0.3 0.29 -70.73 0 0 197.42 235.2 L 172.25 235.2 A 0.4 0.4 -13.25 0 0 171.89 235.78 L 178.97 249.52 A 1.2 1.15 -49.15 0 1 179.02 250.48 L 165.56 286.48 A 0.3 0.3 -90 0 1 165 286.48 L 161.69 277.65"/>
  <path stroke="#92895c" vector-effect="non-scaling-stroke" d="M 160.51 274 L 156.42 263.09"/>
  <path stroke="#92895c" vector-effect="non-scaling-stroke" d="M 153.77 258.03 L 153.97 256.95"/>
  <path stroke="#92895c" vector-effect="non-scaling-stroke" d="M 153.12 254.39 Q 151.39 252.46, 151.41 250.04 A 2.19 2.17 58.81 0 1 151.63 249.13 L 158.85 234.72"/>
  <path stroke="#92895c" vector-effect="non-scaling-stroke" d="M 152.77 235.14 L 114.14 235.19 A 0.33 0.33 70.19 0 0 113.89 235.73 L 125 249.56 A 4.2 4.18 -74.93 0 1 125.67 250.73 L 136.69 279.92"/>
  <path stroke="#fee66e" vector-effect="non-scaling-stroke" d="M 136.77 280.71 Q 136.05 281.26, 135.17 281.11 Q 131.5 280.45, 127.8 280.54 Q 124.78 280.61, 123.41 280.52 Q 121.15 280.37, 119.04 280.18"/>
  <path stroke="#fee66e" vector-effect="non-scaling-stroke" d="M 112.35 280.09 Q 110.2 281.02, 108.88 279.63"/>
  <path stroke="#fee66e" vector-effect="non-scaling-stroke" d="M 103.05 279.35 L 99.85 281.3"/>
  <path stroke="#fee66e" vector-effect="non-scaling-stroke" d="M 87.28 292.75 L 82.52 291.71"/>
  <path stroke="#fed732" vector-effect="non-scaling-stroke" d="M 390.12 299.48 L 344.8 301.15"/>
  <path stroke="#fed732" vector-effect="non-scaling-stroke" d="M 347.44 308.47 L 314.9 311.77"/>
  <path stroke="#92813d" vector-effect="non-scaling-stroke" d="M 333.53 281.73 Q 324.3 283.91, 314.79 283.62 A 0.81 0.8 80.41 0 1 314.05 283.09 Q 313.86 282.57, 313.97 281.79"/>
  <path stroke="#92895c" vector-effect="non-scaling-stroke" d="M 313.97 281.79 L 314.15 277.52 A 0.53 0.53 2.65 0 1 314.71 277.01 C 323.59 277.49, 326.24 271.19, 325.84 263.18 C 325.45 255.34, 328.42 244.29, 317.77 241.73 Q 315.39 241.16, 310.27 241.78"/>
  <path stroke="#92895c" vector-effect="non-scaling-stroke" d="M 309.26 243.53 L 309.06 281.29"/>
  <path stroke="#92813d" vector-effect="non-scaling-stroke" d="M 309.06 281.29 L 309.12 299.39 A 2.4 2.32 -58.66 0 0 309.35 300.41 L 314.9 311.77"/>
  <path stroke="#927a20" vector-effect="non-scaling-stroke" d="M 314.9 311.77 Q 315.82 313.29, 314.93 313.29 Q 306.69 313.35, 298.12 313.63"/>
  <path stroke="#927a20" vector-effect="non-scaling-stroke" d="M 293.74 313.5 L 278.44 313.41 A 0.3 0.3 -78.21 0 1 278.17 312.99 L 279.26 310.47"/>
  <path stroke="#92813d" vector-effect="non-scaling-stroke" d="M 279.26 310.47 L 284.23 300.24 A 3.22 3.13 -32.55 0 0 284.54 298.92 L 284.62 280.14"/>
  <path stroke="#92813d" vector-effect="non-scaling-stroke" d="M 248.49 281.16 L 248.5 298.72 A 4.16 4.09 32.42 0 0 248.92 300.53 L 253.98 310.8"/>
  <path stroke="#927a20" vector-effect="non-scaling-stroke" d="M 253.98 310.8 L 254.75 312.59 A 0.6 0.6 78.35 0 1 254.2 313.43 L 218.41 313.43 A 0.62 0.62 88.02 0 1 217.79 312.85 Q 217.76 312.46, 217.93 311.99"/>
  <path stroke="#92813d" vector-effect="non-scaling-stroke" d="M 217.93 311.99 L 221.67 304.16"/>
  <path stroke="#92813d" vector-effect="non-scaling-stroke" d="M 223.84 298.98 L 223.91 281.11"/>
  <path stroke="#92813d" vector-effect="non-scaling-stroke" d="M 171.87 287.98 L 163.32 310.69"/>
  <path stroke="#927a20" vector-effect="non-scaling-stroke" d="M 163.32 310.69 Q 162.84 312.1, 162.02 313.02 A 1.37 1.33 -71.6 0 1 161.19 313.45 L 158.41 313.81"/>
  <path stroke="#927a20" vector-effect="non-scaling-stroke" d="M 153.01 313.75 Q 148.4 313.19, 148.79 311.62"/>
  <path stroke="#92813d" vector-effect="non-scaling-stroke" d="M 145.07 303.56 Q 145.58 303.5, 145.33 302.75 Q 142.11 293.4, 136.97 280.76"/>
  <path stroke="#fed732" vector-effect="non-scaling-stroke" d="M 142.03 308.82 L 86.45 310.38"/>
  <path stroke="#fed732" vector-effect="non-scaling-stroke" d="M 83.98 310.46 L 82.58 310.21"/>
  <path stroke="#fed732" vector-effect="non-scaling-stroke" d="M 217.93 311.99 Q 204.96 310.86, 192.43 311.35"/>
  <path stroke="#fed732" vector-effect="non-scaling-stroke" d="M 187.7 311.13 L 163.32 310.69"/>
  <path stroke="#fed732" vector-effect="non-scaling-stroke" d="M 279.26 310.47 L 253.98 310.8"/>
  <path stroke="#fee66e" vector-effect="non-scaling-stroke" d="M 313.97 281.79 L 309.06 281.29"/>
  <path stroke="#92895c" vector-effect="non-scaling-stroke" d="M 166.37 259.29 L 166.32 259.96"/>
</g>
  <path fill="#25242b" fill-rule="nonzero" d="M 236.25 195.3 Q 236.86 195.3, 237.03 194.5 Q 238.04 189.76, 238.74 184.01 Q 239.01 181.74, 237.68 181.9 A 0.39 0.39 -79.56 0 1 237.29 181.33 Q 237.35 181.21, 238.03 180.85 A 0.79 0.79 -28.07 0 0 238.35 179.8 L 237.88 178.88 A 1.02 1.01 -39.43 0 1 237.99 177.77 L 240.28 174.89 A 0.43 0.43 -39.3 0 1 240.99 174.96 L 242.66 178.22 A 1.05 1.04 52.37 0 1 242.51 179.41 Q 241.54 180.48, 242.76 181.26 A 0.5 0.5 -36.85 0 1 242.63 182.16 Q 242.16 182.29, 241.76 182.46 Q 241.46 182.59, 241.46 183.5 Q 241.49 189.25, 242.58 195.16 A 0.8 0.68 -71.57 0 0 242.69 195.43 Q 242.84 195.65, 242.88 195.68 A 0.74 0.74 29.26 0 0 244.13 195.33 L 246.68 183.83 A 0.79 0.79 -48.88 0 0 246.08 182.89 L 245.2 182.69 A 0.41 0.41 -23.37 0 1 245.02 181.97 Q 245.57 181.49, 245.88 181.36 A 0.63 0.63 -25.43 0 0 246.19 180.49 L 245.66 179.46 A 0.88 0.88 50.4 0 1 245.75 178.5 L 248.09 175.57 A 0.44 0.43 50.88 0 1 248.82 175.65 L 250.36 178.66 A 1.58 1.58 -36.57 0 1 250.09 180.47 Q 249.49 181.1, 250.74 182.34 A 0.41 0.4 67.45 0 1 250.46 183.03 L 249.91 183.03 A 0.74 0.73 1.21 0 0 249.17 183.73 Q 248.9 189.22, 249.44 195.29 Q 249.59 196.91, 250.75 196.51 A 1.09 1.09 -2.15 0 0 251.44 195.77 L 254.37 185.1 A 0.62 0.62 -70.02 0 0 254.03 184.37 L 253.03 183.91 A 0.52 0.52 -54.12 0 1 252.9 183.06 Q 253.1 182.88, 253.77 182.85 A 0.56 0.56 -15.14 0 0 254.24 182.04 L 253.9 181.37 A 1.14 1.13 -39.71 0 1 254.02 180.14 L 256.49 177.04 A 0.41 0.41 -36.67 0 1 257.19 177.14 L 258.57 180.57 A 1.35 1.35 -30.63 0 1 258.17 182.12 Q 257.45 182.7, 258.43 183.93 A 0.72 0.72 47.01 0 1 258.4 184.86 Q 258.38 184.89, 257.54 184.86 A 0.89 0.89 1.59 0 0 256.62 185.73 L 256.3 197.22 A 0.15 0.15 -51.37 0 0 256.33 197.31 L 256.72 197.77 A 0.76 0.76 -51.7 0 0 257.99 197.62 Q 260.44 192.67, 261.36 187.63 A 1.1 1.1 24.38 0 0 260.96 186.57 L 260.62 186.3 A 0.53 0.53 -47.33 0 1 260.59 185.5 Q 260.92 185.18, 261.08 185.14 A 0.71 0.71 -15.25 0 0 261.59 184.25 L 261.39 183.59 A 0.77 0.74 56.85 0 1 261.52 182.91 L 263.99 179.81 A 0.5 0.5 51.75 0 1 264.83 179.91 Q 266.82 184.24, 265.87 184.65 Q 264.53 185.23, 265.96 187 A 0.32 0.31 -21.41 0 1 265.73 187.51 Q 264.62 187.59, 264.34 187.8 Q 263.78 188.22, 263.87 189.11 Q 263.98 190.28, 263.56 190.85 A 2.7 2.64 65.28 0 0 263.1 192.14 L 262.39 201.21 A 0.77 0.77 -75.88 0 0 262.84 201.97 Q 264.93 202.9, 264.43 205.26 A 1.38 1.38 -13.73 0 1 263.95 206.05 Q 261.89 207.73, 262.78 209.58 C 264 212.14, 263.86 213.5, 261.05 214.35 C 253.59 216.59, 244.22 216.88, 236.24 216.88 C 228.27 216.87, 218.89 216.57, 211.44 214.32 C 208.63 213.47, 208.49 212.11, 209.71 209.55 Q 210.61 207.7, 208.55 206.02 A 1.38 1.38 13.79 0 1 208.07 205.23 Q 207.57 202.87, 209.66 201.94 A 0.77 0.77 75.94 0 0 210.11 201.18 L 209.41 192.11 A 2.7 2.64 -65.21 0 0 208.95 190.82 Q 208.54 190.25, 208.65 189.08 Q 208.74 188.19, 208.18 187.77 Q 207.9 187.56, 206.79 187.48 A 0.32 0.31 21.47 0 1 206.56 186.97 Q 207.99 185.2, 206.65 184.62 Q 205.7 184.21, 207.7 179.88 A 0.5 0.5 -51.69 0 1 208.54 179.78 L 211 182.88 A 0.77 0.74 -56.79 0 1 211.13 183.56 L 210.93 184.22 A 0.71 0.71 15.31 0 0 211.44 185.11 Q 211.6 185.15, 211.93 185.47 A 0.53 0.53 47.39 0 1 211.9 186.27 L 211.56 186.54 A 1.1 1.1 -24.32 0 0 211.16 187.6 Q 212.07 192.64, 214.52 197.6 A 0.76 0.76 51.76 0 0 215.79 197.75 L 216.18 197.29 A 0.15 0.15 -64.5 0 0 216.21 197.2 L 215.9 185.71 A 0.89 0.89 -1.53 0 0 214.98 184.84 Q 214.14 184.87, 214.12 184.84 A 0.72 0.72 -46.95 0 1 214.09 183.91 Q 215.07 182.68, 214.35 182.1 A 1.35 1.35 30.69 0 1 213.96 180.55 L 215.34 177.12 A 0.41 0.41 36.73 0 1 216.04 177.02 L 218.51 180.12 A 1.14 1.13 39.77 0 1 218.62 181.35 L 218.28 182.02 A 0.56 0.56 15.2 0 0 218.75 182.83 Q 219.42 182.86, 219.62 183.04 A 0.52 0.52 54.18 0 1 219.49 183.89 L 218.49 184.35 A 0.62 0.62 70.08 0 0 218.15 185.08 L 221.07 195.75 A 1.09 1.09 2.21 0 0 221.76 196.49 Q 222.92 196.9, 223.07 195.28 Q 223.62 189.21, 223.35 183.72 A 0.74 0.73 -1.15 0 0 222.61 183.02 L 222.06 183.01 A 0.41 0.4 -67.39 0 1 221.78 182.32 Q 223.04 181.09, 222.44 180.46 A 1.58 1.58 36.63 0 1 222.17 178.65 L 223.71 175.64 A 0.44 0.43 -50.82 0 1 224.44 175.56 L 226.78 178.49 A 0.88 0.88 -50.34 0 1 226.87 179.45 L 226.34 180.48 A 0.63 0.63 25.49 0 0 226.64 181.35 Q 226.95 181.48, 227.5 181.96 A 0.41 0.41 7.43 0 1 227.32 182.68 L 226.44 182.88 A 0.79 0.79 57.66 0 0 225.84 183.82 L 228.38 195.32 A 0.74 0.74 -29.19 0 0 229.63 195.67 Q 229.67 195.64, 229.82 195.42 A 0.8 0.68 71.63 0 0 229.93 195.15 Q 231.03 189.24, 231.06 183.49 Q 231.06 182.58, 230.76 182.45 Q 230.36 182.28, 229.89 182.15 A 0.5 0.5 36.91 0 1 229.76 181.25 Q 230.99 180.47, 230.02 179.4 A 1.05 1.04 -52.31 0 1 229.87 178.21 L 231.54 174.95 A 0.43 0.43 39.36 0 1 232.25 174.89 L 234.54 177.77 A 1.02 1.01 39.49 0 1 234.65 178.88 L 234.18 179.8 A 0.79 0.79 28.13 0 0 234.5 180.85 Q 235.17 181.21, 235.23 181.33 A 0.39 0.39 79.63 0 1 234.84 181.9 Q 233.51 181.74, 233.78 184.01 Q 234.48 189.76, 235.48 194.5 Q 235.65 195.3, 236.25 195.3 Z M 417.52 213.07 A 8.73 8.73 0 0 1 408.79 221.8 A 8.73 8.73 0 0 1 400.06 213.07 A 8.73 8.73 0 0 1 408.79 204.34 A 8.73 8.73 0 0 1 417.52 213.07 Z M 416.28 213.08 A 7.46 7.46 0 0 0 408.82 205.62 A 7.46 7.46 0 0 0 401.36 213.08 A 7.46 7.46 0 0 0 408.82 220.54 A 7.46 7.46 0 0 0 416.28 213.08 Z M 412.29 217.04 A 0.24 0.24 73.47 0 1 412.09 217.41 L 410.59 217.41 A 0.72 0.72 79.22 0 1 409.92 216.95 Q 409.43 215.64, 408.28 214.64 A 0.88 0.88 20.51 0 0 406.82 215.3 L 406.82 216.88 A 0.67 0.66 -90 0 1 406.16 217.55 L 405.82 217.55 A 0.64 0.64 45.02 0 1 405.18 216.91 L 405.18 209.42 A 0.64 0.64 45 0 1 405.82 208.78 L 409.84 208.78 A 1.15 1.12 59.73 0 1 410.42 208.94 C 412.61 210.2, 412.9 212.28, 410.99 213.99 Q 410.46 214.46, 410.94 215.1 Q 411.74 216.17, 412.29 217.04 Z M 406.86 210.87 L 406.86 212.65 A 0.36 0.36 -70.3 0 0 407.23 213.01 L 408.73 213 A 1.58 1.02 -0.3 0 0 410.3 211.97 L 410.3 211.51 A 1.58 1.02 -0.3 0 0 408.71 210.5 L 407.21 210.51 A 0.36 0.36 65.08 0 0 406.86 210.87 Z M 158.85 234.72 L 151.63 249.13 A 2.19 2.17 58.81 0 0 151.41 250.04 Q 151.39 252.46, 153.12 254.39 Q 152.81 255.81, 153.97 256.95 L 153.77 258.03 Q 152.24 256.19, 151.44 257.4 A 0.72 0.71 39.02 0 0 151.54 258.29 L 156.42 263.09 L 160.51 274 Q 159.65 275.22, 159.64 276.52 A 0.82 0.8 12.77 0 0 160.11 277.25 Q 160.82 277.57, 161.69 277.65 L 165 286.48 A 0.3 0.3 90 0 0 165.56 286.48 L 179.02 250.48 A 1.2 1.15 -49.15 0 0 178.97 249.52 L 171.89 235.78 A 0.4 0.4 -13.25 0 1 172.25 235.2 L 197.42 235.2 A 0.3 0.29 -70.73 0 1 197.65 235.68 L 187.18 248.8 A 11.68 11.42 -16 0 0 185.4 251.93 L 171.87 287.98 L 163.32 310.69 Q 162.84 312.1, 162.02 313.02 A 1.37 1.33 -71.6 0 1 161.19 313.45 L 158.41 313.81 Q 156.1 312.26, 153.01 313.75 Q 148.4 313.19, 148.79 311.62 Q 149.57 308.54, 145.07 303.56 Q 145.58 303.5, 145.33 302.75 Q 142.11 293.4, 136.97 280.76 Q 136.97 280.23, 136.69 279.92 L 125.67 250.73 A 4.2 4.18 -74.93 0 0 125 249.56 L 113.89 235.73 A 0.33 0.33 70.19 0 1 114.14 235.19 L 152.77 235.14 Q 153 235.63, 152.79 236.74 A 0.7 0.7 -15.24 0 0 153.93 237.39 Q 155.89 235.72, 158.85 234.72 Z M 144.22 237.98 A 0.56 0.56 -41.7 0 0 144.27 237.15 Q 141.79 234.63, 140.93 236.14 C 139.72 238.27, 138.55 239.97, 138.85 241.26 A 0.56 0.56 -25.86 0 0 139.75 241.57 L 144.22 237.98 Z M 145.72 269.59 A 1.04 1.03 -14.64 0 0 146.98 270.32 L 149.81 269.58 A 0.52 0.51 -39.13 0 0 149.91 268.62 L 145.93 266.66 A 0.57 0.57 6 0 0 145.12 267.31 L 145.72 269.59 Z M 144.19 277.85 A 0.59 0.59 0 0 0 143.76 277.14 L 142.86 276.92 A 0.59 0.59 0 0 0 142.15 277.36 L 141.41 280.43 A 0.59 0.59 0 0 0 141.84 281.14 L 142.74 281.36 A 0.59 0.59 0 0 0 143.45 280.92 L 144.19 277.85 Z M 287.57 235.29 Q 312.86 235, 322.25 235.18 C 332.02 235.37, 345.93 239.98, 350.22 249.65 Q 351.25 251.97, 351.26 256.73 C 351.26 264.25, 351.56 266.51, 348.7 272.32 Q 347.26 273.38, 344.63 272.92 A 0.51 0.51 89.59 0 0 344.04 273.52 Q 344.19 274.25, 344.77 275.07 Q 345.08 275.52, 344.93 275.95 Q 344.77 276.4, 344.3 276.65 L 333.53 281.73 Q 324.3 283.91, 314.79 283.62 A 0.81 0.8 80.41 0 1 314.05 283.09 Q 313.86 282.57, 313.97 281.79 L 314.15 277.52 A 0.53 0.53 2.65 0 1 314.71 277.01 C 323.59 277.49, 326.24 271.19, 325.84 263.18 C 325.45 255.34, 328.42 244.29, 317.77 241.73 Q 315.39 241.16, 310.27 241.78 Q 308.78 241.37, 309.26 243.53 L 309.06 281.29 L 309.12 299.39 A 2.4 2.32 -58.66 0 0 309.35 300.41 L 314.9 311.77 Q 315.82 313.29, 314.93 313.29 Q 306.69 313.35, 298.12 313.63 L 296.5 311.15 A 0.36 0.35 -40.58 0 0 295.94 311.11 L 293.74 313.5 L 278.44 313.41 A 0.3 0.3 -78.21 0 1 278.17 312.99 L 279.26 310.47 L 284.23 300.24 A 3.22 3.13 -32.55 0 0 284.54 298.92 L 284.62 280.14 L 284.6 249.51 A 3.48 3.47 -58.95 0 0 284.2 247.89 L 277.95 235.74 A 0.43 0.43 79.78 0 1 278.38 235.12 Q 279.8 235.28, 281.64 234.74 L 283.71 239.11 A 1.78 1.77 70.01 0 0 285.76 240.07 L 293.01 238.16 A 0.52 0.51 -34.69 0 0 293.18 237.24 L 291.76 236.25 A 2.19 2.17 56.22 0 0 290.08 235.91 Q 288.9 236.15, 287.57 235.29 Z M 316.92 237.91 L 320.09 241.86 A 0.22 0.22 47.22 0 0 320.4 241.89 L 320.51 241.8 A 2.37 2.24 51.2 0 0 320.77 238.55 L 320.3 237.96 A 2.37 2.24 51.2 0 0 317.06 237.52 L 316.96 237.6 A 0.22 0.22 89.94 0 0 316.92 237.91 Z M 309.01 238.63 Q 306.14 236.49, 304.59 238.63 A 1.65 1.64 67.3 0 0 304.3 239.34 L 303.63 243.86 A 1.09 1.09 -83.79 0 0 304.62 245.1 L 305.18 245.15 A 1.95 1.94 -86.92 0 0 307.27 243.26 Q 307.35 240.69, 309.04 239.14 A 0.33 0.33 41.91 0 0 309.01 238.63 Z M 347.37 261.11 L 345.55 262.57 A 0.89 0.87 -24.67 0 0 345.23 263.41 Q 345.49 264.97, 346.47 265.9 A 0.68 0.68 -41.53 0 0 347.36 265.95 Q 349.39 264.41, 348.03 261.27 A 0.43 0.42 -31.01 0 0 347.37 261.11 Z M 327.99 276.85 Q 328.59 278.38, 329.49 279.3 Q 330.69 280.51, 331.85 279.33 A 1.56 1.26 -58.59 0 0 331.52 276.88 Q 330.97 276.76, 328.6 276.17 A 0.51 0.51 86.95 0 0 327.99 276.85 Z M 300.66 282.82 L 300.85 285.43 A 0.29 0.29 87.92 0 0 301.16 285.7 L 302.41 285.61 A 1.61 1.38 -4.1 0 0 303.92 284.12 L 303.89 283.68 A 1.61 1.38 -4.1 0 0 302.19 282.42 L 300.93 282.51 A 0.29 0.29 -45 0 0 300.66 282.82 Z M 304.54 304.31 L 300.48 301.07 A 0.47 0.46 -84.45 0 0 299.78 301.65 L 301.15 304.31 A 1.35 1.33 79.43 0 0 302.19 305.03 Q 303.16 305.14, 304.47 304.69 A 0.22 0.22 -34.85 0 0 304.54 304.31 Z M 248.49 281.16 L 248.5 298.72 A 4.16 4.09 32.42 0 0 248.92 300.53 L 253.98 310.8 L 254.75 312.59 A 0.6 0.6 78.35 0 1 254.2 313.43 L 218.41 313.43 A 0.62 0.62 88.02 0 1 217.79 312.85 Q 217.76 312.46, 217.93 311.99 L 221.67 304.16 Q 224.41 302.51, 223.84 298.98 L 223.91 281.11 L 223.91 250.12 A 3.59 3.5 31.83 0 0 223.5 248.47 L 217.54 236.88 A 0.49 0.49 -13.59 0 1 217.98 236.17 L 254.67 236.17 A 0.31 0.31 -76.95 0 1 254.95 236.62 L 248.85 248.99 A 3.56 3.56 57.84 0 0 248.5 250.53 L 248.49 281.16 Z M 166.37 259.29 Q 166.4 259.63, 166.32 259.96 L 166.37 259.29 Z"/>
  <path fill="#feee8d" fill-rule="nonzero" d="M 390.16 280.71 L 343.36 280.61 A 2.41 2.29 37.04 0 0 342.83 280.67 Q 338.24 281.68, 333.53 281.73 L 344.3 276.65 Q 346.07 277.83, 347.7 277.35 A 1.09 1.05 1.98 0 0 348.39 276.73 Q 349.25 274.65, 348.7 272.32 C 351.56 266.51, 351.26 264.25, 351.26 256.73 Q 351.25 251.97, 350.22 249.65 C 345.93 239.98, 332.02 235.37, 322.25 235.18 Q 312.86 235, 287.57 235.29 Q 285.31 234.15, 283.32 231.17 A 1.09 1.08 25.2 0 0 281.34 231.88 L 281.64 234.74 Q 279.8 235.28, 278.38 235.12 A 0.43 0.43 79.78 0 0 277.95 235.74 L 284.2 247.89 A 3.48 3.47 -58.95 0 1 284.6 249.51 L 284.62 280.14 L 269.78 280.24 A 1.84 1 -3.12 0 0 269.52 280.25 L 264.88 280.69 Q 264.85 279.29, 263.26 279.59 Q 262.46 279.74, 261.21 281.05 Q 255.03 279.47, 248.49 281.16 L 248.5 250.53 A 3.56 3.56 57.84 0 1 248.85 248.99 L 254.95 236.62 A 0.31 0.31 -76.95 0 0 254.67 236.17 L 217.98 236.17 A 0.49 0.49 -13.59 0 0 217.54 236.88 L 223.5 248.47 A 3.59 3.5 31.83 0 1 223.91 250.12 L 223.91 281.11 Q 214.37 280.13, 210.47 280.13 Q 194.01 280.13, 177.34 280.13 A 1.27 1.25 9.29 0 0 176.14 280.98 Q 174.86 284.77, 171.87 287.98 L 185.4 251.93 A 11.68 11.42 -16 0 1 187.18 248.8 L 197.65 235.68 A 0.3 0.29 -70.73 0 0 197.42 235.2 L 172.25 235.2 A 0.4 0.4 -13.25 0 0 171.89 235.78 L 178.97 249.52 A 1.2 1.15 -49.15 0 1 179.02 250.48 L 165.56 286.48 A 0.3 0.3 -90 0 1 165 286.48 L 161.69 277.65 L 164.58 276.16 A 0.82 0.82 -27.86 0 0 164.93 275.05 L 163.89 273.03 A 0.77 0.77 55.28 0 0 162.69 272.81 Q 162 273.42, 160.51 274 L 156.42 263.09 Q 157.18 263.21, 157.35 262.3 A 0.7 0.69 -61.66 0 0 157.18 261.71 L 153.77 258.03 L 153.97 256.95 L 159.5 253.45 A 0.32 0.16 -63.43 0 0 159.58 253.39 Q 160.21 252.77, 160.37 252.46 A 1.09 1.08 18.96 0 0 159.59 250.87 L 155.44 250.19 A 0.78 0.78 -74.53 0 0 154.58 250.68 L 153.12 254.39 Q 151.39 252.46, 151.41 250.04 A 2.19 2.17 58.81 0 1 151.63 249.13 L 158.85 234.72 L 160.45 232.69 A 0.56 0.56 -76.99 0 0 159.89 231.79 Q 156.99 232.43, 154.52 231.6 A 0.74 0.74 16.6 0 0 153.57 232.11 L 152.77 235.14 L 114.14 235.19 A 0.33 0.33 70.19 0 0 113.89 235.73 L 125 249.56 A 4.2 4.18 -74.93 0 1 125.67 250.73 L 136.69 279.92 Q 136.62 280.26, 136.77 280.71 Q 136.05 281.26, 135.17 281.11 Q 131.5 280.45, 127.8 280.54 Q 124.78 280.61, 123.41 280.52 Q 121.15 280.37, 119.04 280.18 Q 119.52 277.12, 112.35 280.09 Q 110.2 281.02, 108.88 279.63 L 110.96 274.39 A 0.74 0.74 -8.47 0 0 109.81 273.54 L 106.96 275.83 A 1.08 1.06 -47.27 0 1 105.69 275.89 L 102.46 273.7 A 0.9 0.86 11.37 0 1 102.11 273.2 L 101.54 271.06 A 0.44 0.43 51.17 0 0 100.73 270.97 L 98.77 274.94 A 0.59 0.58 20.88 0 0 99.14 275.76 Q 101.69 276.49, 103.05 279.35 L 99.85 281.3 C 96.74 279.56, 95.78 283.97, 95.36 285.91 A 0.86 0.86 -64.68 0 1 93.99 286.4 L 92.71 285.37 A 0.61 0.61 35.34 0 0 91.82 285.52 L 87.28 292.75 L 82.52 291.71 L 82.51 222.27 A 0.57 0.57 -64.82 0 1 83.08 221.7 Q 232.36 221.65, 246.25 221.71 Q 247.63 221.71, 248.89 222.03 Q 248.91 222.03, 248.93 222.03 L 259.4 221.57 A 1.35 1.35 84.36 0 1 260.8 222.72 Q 261.42 226.87, 257.96 226.75 A 1.47 1.39 -33.36 0 0 257.31 229.5 Q 258.13 229.76, 259.58 229.44 A 2.27 2.14 -67.93 0 0 260.41 229.06 C 262.09 227.8, 265.06 224.74, 264.16 222.2 A 0.39 0.39 80.45 0 1 264.53 221.68 L 376.96 221.68 A 2.64 2.63 -19.23 0 1 379.02 222.67 L 380.34 224.31 A 1.37 1.37 -64.45 0 0 382.77 223.45 L 382.77 222.32 A 0.62 0.61 85.66 0 1 383.29 221.71 Q 386.5 221.24, 389.71 221.84 A 0.57 0.56 5.64 0 1 390.17 222.39 L 390.16 280.71 Z M 210.5 232.6 L 216.94 231.42 A 0.52 0.52 -14.59 0 0 217.35 230.81 L 217.02 228.97 A 3.16 2.81 -10.4 0 0 213.4 226.78 L 212.16 227.01 A 3.16 2.81 -10.4 0 0 209.56 230.34 L 209.9 232.18 A 0.52 0.52 -8.08 0 0 210.5 232.6 Z M 205.19 239.65 A 2.49 1.64 -59.5 0 0 202.52 240.97 A 2.49 1.64 -59.5 0 0 202.67 243.95 A 2.49 1.64 -59.5 0 0 205.34 242.63 A 2.49 1.64 -59.5 0 0 205.19 239.65 Z M 160.55 243.41 L 162.08 247.11 A 0.48 0.48 -19.01 0 0 162.71 247.37 L 162.88 247.3 A 2.28 2.22 67.5 0 0 164.06 244.34 L 163.9 243.97 A 2.28 2.22 67.5 0 0 160.98 242.72 L 160.81 242.79 A 0.48 0.48 -48.62 0 0 160.55 243.41 Z M 99.09 249.41 Q 101.7 250.79, 104.46 249.84 A 1.72 1.72 72.51 0 0 105.55 247.74 C 104.8 245.1, 101.82 241.9, 99.05 243.53 Q 96.45 245.06, 94.84 249.97 A 1.09 1.09 73.41 0 0 96.72 250.99 L 97.76 249.69 A 1.07 1.07 -56.85 0 1 99.09 249.41 Z M 378.2 247.22 A 4.75 1.05 -124.8 0 0 380.05 251.72 A 4.75 1.05 -124.8 0 0 383.62 255.02 A 4.75 1.05 -124.8 0 0 381.77 250.52 A 4.75 1.05 -124.8 0 0 378.2 247.22 Z M 166.37 259.29 L 166.32 259.96 Q 166.06 260.72, 166.6 260.96 A 0.39 0.37 43.21 0 0 166.93 260.96 C 168.2 260.32, 170.6 258.5, 172.51 259.13 A 0.61 0.61 6.99 0 0 173.31 258.63 Q 173.99 253.83, 170.94 252.26 A 1.5 1.5 23.91 0 1 170.29 251.61 L 168.67 248.47 A 0.66 0.65 62.85 0 0 167.79 248.18 Q 164.75 249.75, 164.57 253.23 A 1.15 1.15 -75.81 0 0 165.21 254.31 L 166.23 254.81 A 0.99 0.97 16.76 0 1 166.77 255.8 L 166.37 259.29 Z M 185.43 270.68 C 187.71 271.66, 192.03 272.62, 193.13 269.59 C 193.87 267.56, 192.3 263.77, 192.01 262.13 A 0.64 0.63 -13.19 0 1 192.46 261.41 L 194.31 260.86 A 1.15 1.15 -81.6 0 0 194.94 260.39 L 197.69 256.16 A 1.91 1.91 3.19 0 0 195.23 253.41 L 194.04 254.01 A 1.06 1.06 -87.84 0 0 193.64 254.33 L 191.54 256.96 A 0.94 0.94 -62 0 1 190.53 257.27 L 190.13 257.15 A 1.57 1.56 1.09 0 0 188.16 259.04 L 189.11 262.65 A 1.22 1.21 47.42 0 1 189.08 263.38 Q 188.25 265.61, 187.37 267.85 C 186.98 268.86, 185.67 269.4, 185.24 269.96 A 0.47 0.47 30.22 0 0 185.43 270.68 Z M 162.65 263.6 L 161.55 259.73 A 0.36 0.36 55.15 0 0 161.11 259.48 L 160.86 259.55 A 2.42 2.36 -15.9 0 0 159.18 262.49 L 159.18 262.51 A 2.42 2.36 -15.9 0 0 162.15 264.11 L 162.4 264.04 A 0.36 0.36 82.17 0 0 162.65 263.6 Z M 372.99 268.76 L 372.6 270.93 A 0.48 0.48 -20.2 0 0 372.99 271.49 L 373.13 271.51 A 2.47 1.48 10.2 0 0 375.83 270.49 L 375.86 270.3 A 2.47 1.48 10.2 0 0 373.69 268.4 L 373.55 268.38 A 0.48 0.48 45 0 0 372.99 268.76 Z M 120.6 273.85 L 122.62 278.51 A 0.13 0.13 86.12 0 0 122.79 278.58 L 122.86 278.55 A 2.5 2.21 66.6 0 0 123.9 275.38 L 123.76 275.06 A 2.5 2.21 66.6 0 0 120.74 273.65 L 120.67 273.68 A 0.13 0.13 -31.44 0 0 120.6 273.85 Z M 313.97 281.79 L 309.06 281.29 L 309.26 243.53 Q 309.87 242.87, 310.27 241.78 Q 315.39 241.16, 317.77 241.73 C 328.42 244.29, 325.45 255.34, 325.84 263.18 C 326.24 271.19, 323.59 277.49, 314.71 277.01 A 0.53 0.53 2.65 0 0 314.15 277.52 L 313.97 281.79 Z"/>
  <path fill="#fedd4f" fill-rule="nonzero" d="M 108.88 279.63 Q 110.2 281.02, 112.35 280.09 Q 117.36 283.77, 119.04 280.18 Q 121.15 280.37, 123.41 280.52 Q 124.78 280.61, 127.8 280.54 Q 131.5 280.45, 135.17 281.11 Q 136.05 281.26, 136.77 280.71 Q 136.87 280.73, 136.97 280.76 Q 142.11 293.4, 145.33 302.75 Q 145.58 303.5, 145.07 303.56 Q 144.18 303.75, 143.74 304.14 Q 143.38 304.45, 143.41 305.49 Q 143.47 307.38, 142.03 308.82 L 86.45 310.38 L 86.38 307.01 A 0.84 0.84 56.64 0 0 84.78 306.68 Q 84 308.42, 83.98 310.46 L 82.58 310.21 L 82.52 291.71 L 87.28 292.75 Q 89.8 293.48, 91.83 292.2 A 1.95 1.92 -87.98 0 0 92.4 291.66 Q 94.32 288.93, 97.61 286.15 Q 100.01 284.11, 99.85 281.3 L 103.05 279.35 L 108.88 279.63 Z M 132.34 282.71 A 2.48 1 -131 0 0 133.22 285.24 A 2.48 1 -131 0 0 135.6 286.45 A 2.48 1 -131 0 0 134.72 283.92 A 2.48 1 -131 0 0 132.34 282.71 Z M 94.99 292.78 A 0.73 0.72 88.3 0 0 95.96 293.7 Q 101.29 291.28, 103.43 295.48 A 1.44 1.44 39.63 0 0 106.1 295.23 C 107.61 290.16, 100.23 289.62, 97.06 290.19 A 2.11 2.1 5.15 0 0 95.45 291.53 L 94.99 292.78 Z M 91.62 304.6 Q 92.43 301.38, 93.96 299.01 A 0.72 0.72 12.29 0 0 93.25 297.91 Q 91.21 298.19, 90.04 299.33 A 1.09 1.09 -22.66 0 0 89.72 300.1 Q 89.75 302.06, 91.03 304.67 A 0.32 0.32 -51.43 0 0 91.62 304.6 Z M 223.91 281.11 L 223.84 298.98 Q 221.5 300.16, 219.81 302.76 A 0.48 0.46 28.64 0 0 220.02 303.44 L 221.67 304.16 L 217.93 311.99 Q 204.96 310.86, 192.43 311.35 Q 189.39 310.65, 187.7 311.13 L 163.32 310.69 L 171.87 287.98 Q 174.86 284.77, 176.14 280.98 A 1.27 1.25 9.29 0 1 177.34 280.13 Q 194.01 280.13, 210.47 280.13 Q 214.37 280.13, 223.91 281.11 Z M 185.21 306.24 Q 185.72 306, 185.48 305.51 Q 184.4 303.4, 183.97 303.61 Q 183.53 303.81, 184.47 305.98 Q 184.69 306.49, 185.21 306.24 Z M 284.62 280.14 L 284.54 298.92 A 3.22 3.13 -32.55 0 1 284.23 300.24 L 279.26 310.47 L 253.98 310.8 L 248.92 300.53 A 4.16 4.09 32.42 0 1 248.5 298.72 L 248.49 281.16 Q 255.03 279.47, 261.21 281.05 Q 261.17 282.21, 261.62 283.51 A 1.71 1.69 48.99 0 1 261.54 284.79 L 260.38 287.14 A 0.44 0.43 -84.18 0 0 260.88 287.76 L 262.61 287.31 A 0.85 0.84 -81.33 0 1 263.54 288.58 Q 261.47 291.86, 262.07 297.22 A 0.63 0.63 61.24 0 0 263.19 297.55 L 263.64 296.98 A 2.34 2.32 64.78 0 0 264.16 295.51 L 264.16 290.55 A 3.61 3.58 64.47 0 1 264.94 288.31 L 266.32 286.58 A 1.91 1.87 -28.53 0 0 266.73 285.25 Q 266.59 283.49, 264.77 282.75 A 0.68 0.67 13.93 0 1 264.35 282.06 Q 264.43 281.27, 264.88 280.69 L 269.52 280.25 A 1.84 1 -3.12 0 1 269.78 280.24 L 284.62 280.14 Z M 254.1 286.27 A 0.7 0.7 0 0 0 253.7 285.37 L 251.31 284.45 A 0.7 0.7 0 0 0 250.41 284.86 L 250.36 284.99 A 0.7 0.7 0 0 0 250.76 285.89 L 253.15 286.81 A 0.7 0.7 0 0 0 254.05 286.4 L 254.1 286.27 Z M 390.16 280.71 L 390.12 299.48 L 344.8 301.15 Q 344.02 298.02, 341.43 297.7 A 1.25 1.24 0.95 0 0 340.04 299.04 C 340.25 301.57, 340.82 303.68, 343.12 304.98 C 345.16 306.12, 346.31 306.41, 347.44 308.47 L 314.9 311.77 L 309.35 300.41 A 2.4 2.32 -58.66 0 1 309.12 299.39 L 309.06 281.29 L 313.97 281.79 Q 313.86 282.57, 314.05 283.09 A 0.81 0.8 80.41 0 0 314.79 283.62 Q 324.3 283.91, 333.53 281.73 Q 338.24 281.68, 342.83 280.67 A 2.41 2.29 37.04 0 1 343.36 280.61 L 390.16 280.71 Z"/>
  <path fill="#fed015" fill-rule="nonzero" d="M 390.12 299.48 L 390.18 324.95 A 0.96 0.96 -60.13 0 1 389.22 325.91 L 383.35 325.89 A 0.96 0.96 88.73 0 1 382.4 324.98 Q 382.38 324.57, 381.47 322.5 Q 379.88 318.89, 376 321.1 A 1.83 1.83 55.82 0 0 375.48 323.84 L 376.61 325.25 A 0.39 0.38 -19.05 0 1 376.3 325.87 L 353.41 325.87 A 5.26 5.12 -31.46 0 1 351.16 325.36 Q 344.28 322.02, 339.16 320.23 Q 337.09 319.5, 336.01 321.52 A 1.36 1.36 49.81 0 0 335.92 322.6 L 336.77 325.05 A 0.6 0.6 79.45 0 1 336.23 325.84 Q 334.39 325.89, 315.01 325.82 Q 313.83 325.82, 312.64 325.01 A 0.92 0.92 -51.12 0 0 311.69 324.96 Q 309.02 326.37, 305.34 325.7 A 0.8 0.8 -8.37 0 1 304.77 325.28 L 303.83 323.45 A 0.64 0.63 62.64 0 1 304.1 322.59 Q 307.16 321.03, 307.84 318.47 A 1.09 1.08 -78.45 0 0 306.95 317.11 Q 303.21 316.57, 301.34 316.33 Q 298.96 316.04, 298.12 313.63 Q 306.69 313.35, 314.93 313.29 Q 315.82 313.29, 314.9 311.77 L 347.44 308.47 Q 347.98 309.79, 348.56 310.11 A 2.15 2.15 -74.51 0 0 351.74 308.31 Q 351.77 307.44, 350.5 306.52 Q 347.24 304.15, 344.8 301.15 L 390.12 299.48 Z M 346.99 313.24 L 344.82 319.06 A 0.98 0.97 -3.26 0 0 346.18 320.27 L 351.03 317.77 A 1.21 1.21 50.63 0 0 351.23 315.74 L 347.81 313.02 A 0.52 0.52 -59.88 0 0 346.99 313.24 Z M 372.68 317.84 A 0.75 0.74 0 0 0 373.43 317.1 L 373.43 314.14 A 0.84 0.84 -25.74 0 0 371.93 313.62 L 369.48 316.69 A 0.71 0.71 -70.72 0 0 370.03 317.84 L 372.68 317.84 Z M 142.03 308.82 Q 141.68 310.14, 141.93 310.95 A 2.17 2.16 -19.19 0 0 144.77 312.32 Q 146.13 311.81, 148.79 311.62 Q 148.4 313.19, 153.01 313.75 Q 155.01 315.76, 157.99 315.95 A 0.59 0.59 5.23 0 0 158.61 315.44 Q 158.71 314.77, 158.41 313.81 L 161.19 313.45 A 1.37 1.33 -71.6 0 0 162.02 313.02 Q 162.84 312.1, 163.32 310.69 L 187.7 311.13 C 187.69 314.32, 189.46 315.79, 192.2 313.79 Q 194.29 312.26, 192.43 311.35 Q 204.96 310.86, 217.93 311.99 Q 217.76 312.46, 217.79 312.85 A 0.62 0.62 88.02 0 0 218.41 313.43 L 254.2 313.43 A 0.6 0.6 78.35 0 0 254.75 312.59 L 253.98 310.8 L 279.26 310.47 L 278.17 312.99 A 0.3 0.3 -78.21 0 0 278.44 313.41 L 293.74 313.5 L 291.73 316.53 A 0.52 0.52 23.2 0 0 292.05 317.32 L 295.48 318.08 A 2.72 2.71 6.23 0 1 297.61 320.73 L 297.61 324.43 A 0.43 0.42 61.9 0 0 298.39 324.67 Q 298.9 323.9, 300.24 323.07 A 0.5 0.5 65.64 0 1 300.98 323.35 Q 301.37 324.65, 301.26 325.09 A 0.97 0.97 6.29 0 1 300.31 325.85 L 219.92 325.86 A 0.7 0.7 19.28 0 1 219.37 324.72 L 223.02 320.14 A 1.48 1.48 53.4 0 0 223.24 318.65 C 220.83 312.7, 214.22 315.88, 210.78 318.86 A 0.86 0.85 -34.55 0 0 210.58 319.91 L 213.25 325.12 A 0.51 0.5 -13.83 0 1 212.8 325.86 Q 188.24 325.87, 185.5 325.84 Q 184.85 325.83, 182.78 325.24 A 1.52 1.5 -50.34 0 0 181.66 325.35 L 180.93 325.73 A 1.2 1.13 29.68 0 1 180.39 325.86 L 124.28 325.86 A 1.41 1.41 89.59 0 1 122.87 324.47 C 122.85 322.62, 120.61 321.02, 118.69 321.93 Q 117.8 322.35, 117.54 322.41 A 0.7 0.69 70.76 0 1 116.74 322.02 Q 115.79 319.95, 112.6 320.82 A 1.26 1.25 -20.95 0 1 111.16 320.18 L 109.52 316.99 A 0.55 0.55 31.34 0 0 108.49 317.24 L 108.49 320.71 A 0.51 0.51 -76.98 0 1 107.76 321.17 L 101.01 317.84 A 0.61 0.59 -53.92 0 0 100.32 317.96 Q 97.36 320.97, 98.2 325.1 A 0.65 0.64 84.46 0 1 97.57 325.87 L 83.2 325.87 A 0.63 0.62 0 0 1 82.57 325.25 L 82.58 310.21 L 83.98 310.46 Q 85.05 311.65, 86.45 310.38 L 142.03 308.82 Z M 86.72 315.5 L 84.53 312.05 A 0.23 0.23 9.38 0 0 84.21 311.98 L 84.12 312.04 A 2.3 2.19 -32.4 0 0 83.35 315.12 L 83.44 315.25 A 2.3 2.19 -32.4 0 0 86.55 315.87 L 86.65 315.81 A 0.23 0.23 52.5 0 0 86.72 315.5 Z M 126.92 319.06 Q 125.37 317.73, 126.01 316.11 A 0.72 0.72 -60.91 0 0 125.77 315.26 Q 123.71 313.78, 121.58 313.67 A 0.55 0.54 -75.27 0 0 121.06 313.98 Q 118.9 318.66, 123.25 319.72 Q 126.03 320.4, 126.9 319.75 A 0.44 0.44 46.83 0 0 126.92 319.06 Z M 252.16 319.69 L 254.81 318.18 A 0.27 0.27 44.98 0 0 254.92 317.81 L 254.83 317.65 A 3.61 1.78 60.3 0 0 251.49 315.4 L 251.46 315.42 A 3.61 1.78 60.3 0 0 251.7 319.43 L 251.79 319.59 A 0.27 0.27 19.62 0 0 252.16 319.69 Z M 102.75 325.78 A 0.11 0.11 38.6 0 1 102.64 325.66 L 102.64 325.59 A 4.21 2.22 1 0 1 106.89 323.45 L 107.09 323.45 A 4.21 2.22 1 0 1 111.26 325.75 L 111.26 325.82 A 0.11 0.11 -71.03 0 1 111.15 325.92 L 102.75 325.78 Z M 116.91 325.56 A 0.42 0.37 -25.3 0 1 117.2 324.89 Q 117.59 324.85, 117.78 325.09 C 118.19 325.61, 117.15 325.77, 116.91 325.56 Z"/>
</svg>