<?xml version="1.0" encoding="UTF-8" standalone="no"?>
<!DOCTYPE svg PUBLIC "-//W3C//DTD SVG 1.1//EN" "http://www.w3.org/Graphics/SVG/1.1/DTD/svg11.dtd">
<svg xmlns="http://www.w3.org/2000/svg" version="1.1" viewBox="0 0 500 500">
<g stroke-width="2.00" fill="none" stroke-linecap="butt">
  <path stroke="#fee876" vector-effect="non-scaling-stroke" d="M 390.08 280.25 Q 377.79 280.01, 365.75 280.2 Q 358.47 280.32, 351.17 280.4 Q 351.08 280.4, 344.63 280.08 Q 341.06 279.91, 337.04 280.57"/>
  <path stroke="#928a5c" vector-effect="non-scaling-stroke" d="M 337.04 280.57 L 344.64 276.2"/>
  <path stroke="#fff7c5" vector-effect="non-scaling-stroke" d="M 344.64 276.2 Q 345.89 278.91, 348.19 278.11 A 0.93 0.91 87.82 0 0 348.79 277.45 Q 349.42 274.8, 348.04 272.86"/>
  <path stroke="#928a5c" vector-effect="non-scaling-stroke" d="M 348.04 272.86 Q 351.05 268.58, 351.12 266.27 Q 351.28 260.91, 351.3 254.07 A 6.88 6.55 -53.04 0 0 351.12 252.52 C 348.33 240.56, 333.21 235.6, 322.25 235.23 Q 313.26 234.92, 287.77 235.34"/>
  <path stroke="#fff7c5" vector-effect="non-scaling-stroke" d="M 287.77 235.34 Q 285.46 234.34, 283.22 231.67 A 1.59 1.58 -9.27 0 0 282.55 231.19 L 282.06 231.01 A 0.67 0.67 -0.99 0 0 281.2 231.9 Q 281.95 233.74, 281.85 235.09"/>
  <path stroke="#928a5c" vector-effect="non-scaling-stroke" d="M 281.85 235.09 L 278.49 235.13 A 0.52 0.52 76.21 0 0 278.03 235.89 L 284.23 248.01 A 3.27 3.2 31.9 0 1 284.59 249.49 L 284.52 280.51"/>
  <path stroke="#fee876" vector-effect="non-scaling-stroke" d="M 284.52 280.51 L 265.43 280.62"/>
  <path stroke="#fff7c5" vector-effect="non-scaling-stroke" d="M 265.43 280.62 Q 263.65 277.77, 261.11 281.48"/>
  <path stroke="#fee876" vector-effect="non-scaling-stroke" d="M 261.11 281.48 Q 256.27 279.39, 248.55 280.87"/>
  <path stroke="#928a5c" vector-effect="non-scaling-stroke" d="M 248.55 280.87 L 248.45 250.69 A 3.84 3.75 58.73 0 1 248.84 249.01 L 254.89 236.8 A 0.44 0.44 -76.86 0 0 254.5 236.17 L 218.08 236.17 A 0.55 0.55 -13.55 0 0 217.59 236.97 L 223.48 248.49 A 3.99 3.99 31.28 0 1 223.91 250.25 L 223.91 280.58"/>
  <path stroke="#fee876" vector-effect="non-scaling-stroke" d="M 223.91 280.58 L 177.1 280.3 A 1.12 1.11 -67.7 0 0 176.3 280.64 L 173.63 283.41"/>
  <path stroke="#928a5c" vector-effect="non-scaling-stroke" d="M 173.63 283.41 L 185.62 251.3 A 6.51 6.51 -15.43 0 1 186.66 249.47 L 197.62 235.77 A 0.36 0.36 -70.78 0 0 197.34 235.19 L 172.38 235.19 A 0.47 0.47 76.71 0 0 171.96 235.87 L 179.01 249.65 A 1.26 1.24 41.89 0 1 179.07 250.63 L 165.53 286.61 A 0.42 0.42 82.32 0 1 164.75 286.61 L 161.37 277.59"/>
  <path stroke="#fff7c5" vector-effect="non-scaling-stroke" d="M 161.37 277.59 L 165.45 276.41 A 0.91 0.9 -20.88 0 0 166.02 275.15 Q 165.3 273.62, 164.02 272.46 A 1.41 1.4 -50.97 0 0 161.94 272.68 Q 161.34 273.53, 160.27 274.27"/>
  <path stroke="#928a5c" vector-effect="non-scaling-stroke" d="M 160.27 274.27 L 155.84 262.44"/>
  <path stroke="#fff7c5" vector-effect="non-scaling-stroke" d="M 155.84 262.44 Q 158.77 262.43, 153.74 258.24"/>
  <path stroke="#928a5c" vector-effect="non-scaling-stroke" d="M 153.74 258.24 Q 154.04 258.59, 153.87 257.5"/>
  <path stroke="#fff7c5" vector-effect="non-scaling-stroke" d="M 153.87 257.5 C 154.52 255.73, 158.64 254.08, 160.36 253.07 A 1.29 1.29 32.59 0 0 159.83 250.67 L 155.65 250.25 A 1.08 1.08 -80.02 0 0 154.5 251.06 L 153.32 255.86"/>
  <path stroke="#928a5c" vector-effect="non-scaling-stroke" d="M 153.32 255.86 L 151.3 250.9 A 1.78 1.77 -42.91 0 1 151.36 249.46 L 158.56 234.92"/>
  <path stroke="#fff7c5" vector-effect="non-scaling-stroke" d="M 158.56 234.92 L 160.98 232.66 A 0.62 0.62 -73.28 0 0 160.41 231.6 Q 157.55 232.31, 154.55 231.59 A 0.81 0.81 13.42 0 0 153.58 232.18 L 152.82 235.14"/>
  <path stroke="#928a5c" vector-effect="non-scaling-stroke" d="M 152.82 235.14 L 141.86 235.3"/>
  <path stroke="#fff7c5" vector-effect="non-scaling-stroke" d="M 141.86 235.3 Q 142.21 235.6, 141.33 235.44"/>
  <path stroke="#928a5c" vector-effect="non-scaling-stroke" d="M 141.33 235.44 Q 141.25 235.38, 141.12 235.29 A 0.49 0.47 62.86 0 0 140.83 235.19 L 114.17 235.19 A 0.34 0.34 -19.34 0 0 113.9 235.74 Q 118.13 240.97, 124.95 249.55 Q 125.45 250.18, 126.45 252.79 Q 131.96 267.18, 137.14 280.92"/>
  <path stroke="#fee876" vector-effect="non-scaling-stroke" d="M 137.14 280.92 Q 129.09 280.02, 120.5 280.44 Q 119.19 280.5, 118.53 281.49"/>
  <path stroke="#fff7c5" vector-effect="non-scaling-stroke" d="M 118.53 281.49 L 119.26 279.77 A 1.13 1.13 -83.03 0 0 118.05 278.22 Q 114.58 278.75, 112.25 280.54"/>
  <path stroke="#fee876" vector-effect="non-scaling-stroke" d="M 112.25 280.54 L 101.83 280.42 A 0.89 0.87 -62.26 0 0 101.27 280.6 Q 100.54 281.14, 100.47 282.43"/>
  <path stroke="#fff7c5" vector-effect="non-scaling-stroke" d="M 100.47 282.43 Q 99.64 279.4, 96.55 281.78"/>
  <path stroke="#fee876" vector-effect="non-scaling-stroke" d="M 96.55 281.78 L 86.49 280.49 A 0.66 0.65 83.91 0 0 85.79 281.36 Q 87.5 286.08, 82.56 289.16"/>
  <path stroke="#feda47" vector-effect="non-scaling-stroke" d="M 390.06 298.12 Q 367.55 298.21, 345.39 302.06"/>
  <path stroke="#fff0b0" vector-effect="non-scaling-stroke" d="M 345.39 302.06 L 344.12 299.11 A 1.18 1.14 87.84 0 0 343.45 298.47 L 341.14 297.6 A 0.77 0.77 -82.79 0 0 340.1 298.41 L 340.48 301.77"/>
  <path stroke="#feda47" vector-effect="non-scaling-stroke" d="M 340.48 301.77 C 331.08 297.6, 319.32 297.28, 310.96 304"/>
  <path stroke="#929296" vector-effect="non-scaling-stroke" d="M 287.77 235.34 Q 291.22 235.74, 293.03 237.04 A 0.72 0.71 -33.57 0 1 292.77 238.32 L 285.29 239.97 A 1.22 1.21 -19.27 0 1 283.93 239.32 L 281.85 235.09"/>
  <path stroke="#feda47" vector-effect="non-scaling-stroke" d="M 283.67 302.53 Q 279.99 298.44, 275.46 298.09 C 270.01 297.66, 262.38 297.71, 258.06 298.66 Q 253.55 299.65, 249.54 303.02"/>
  <path stroke="#929296" vector-effect="non-scaling-stroke" d="M 348.04 272.86 L 344.59 272.94 A 0.56 0.56 70.73 0 0 344.16 273.84 Q 345.25 275.27, 344.64 276.2"/>
  <path stroke="#928246" vector-effect="non-scaling-stroke" d="M 337.04 280.57 Q 326.32 284.21, 314.54 283.51 A 0.57 0.57 1.66 0 1 314.01 282.95 L 313.96 280.54"/>
  <path stroke="#928a5c" vector-effect="non-scaling-stroke" d="M 313.96 280.54 L 314.11 277.54 A 0.54 0.54 2.6 0 1 314.68 277.02 Q 323.42 277.46, 325.65 269.05 A 4.58 4.5 52.63 0 0 325.79 267.93 Q 325.76 257.47, 325.82 255.54 C 326.05 248.45, 324.64 243.28, 317.5 241.65 A 0.76 0.54 -28.36 0 0 317.33 241.63 L 309.65 241.61 A 0.54 0.54 -45.12 0 0 309.11 242.15 L 309.02 281.3"/>
  <path stroke="#928246" vector-effect="non-scaling-stroke" d="M 309.02 281.3 L 309.12 299.63 A 2.37 2.3 32.76 0 0 309.34 300.57 L 310.96 304"/>
  <path stroke="#927c2d" vector-effect="non-scaling-stroke" d="M 310.96 304 L 315.37 312.88 A 0.38 0.38 -12.73 0 1 315.02 313.43 L 297.72 313.35"/>
  <path stroke="#927c2d" vector-effect="non-scaling-stroke" d="M 293.85 313.48 L 278.6 313.48 A 0.46 0.45 -76.09 0 1 278.2 312.81 L 283.67 302.53"/>
  <path stroke="#928246" vector-effect="non-scaling-stroke" d="M 283.67 302.53 Q 285.39 292.01, 284.52 280.51"/>
  <path stroke="#fff0b0" vector-effect="non-scaling-stroke" d="M 223.85 299.41 Q 222.8 299.11, 221.6 300.69"/>
  <path stroke="#feda47" vector-effect="non-scaling-stroke" d="M 221.6 300.69 Q 208.66 297.95, 195.53 298.16 C 184.3 298.34, 175.28 298.71, 165.43 305.1"/>
  <path stroke="#fff0b0" vector-effect="non-scaling-stroke" d="M 118.53 281.49 Q 116.29 282.93, 112.25 280.54"/>
  <path stroke="#fff0b0" vector-effect="non-scaling-stroke" d="M 265.43 280.62 Q 264.8 281.34, 264.59 281.92 A 0.54 0.53 16.6 0 0 264.97 282.62 Q 266.9 283.06, 266.95 285.37 A 1.3 1.3 62.81 0 1 266.69 286.18 L 264.7 288.79 A 2.38 2.36 63.56 0 0 264.23 290.21 L 264.23 295.53 A 2.41 2.39 -20.44 0 1 263.39 297.35 L 263.09 297.61 A 0.61 0.6 -23.14 0 1 262.11 297.22 Q 261.48 292.58, 263.69 288.03 A 0.61 0.61 6.42 0 0 263 287.17 L 260.94 287.62 A 0.57 0.57 18.32 0 1 260.44 286.63 Q 262.26 285.07, 261.11 281.48"/>
  <path stroke="#928246" vector-effect="non-scaling-stroke" d="M 248.55 280.87 Q 247.58 292.37, 249.54 303.02"/>
  <path stroke="#927c2d" vector-effect="non-scaling-stroke" d="M 249.54 303.02 L 254.89 312.95 A 0.34 0.33 -13.83 0 1 254.59 313.44 L 218.34 313.44 A 0.63 0.63 13.4 0 1 217.78 312.53 L 222.19 303.73"/>
  <path stroke="#929296" vector-effect="non-scaling-stroke" d="M 222.19 303.73 Q 224.07 302.39, 223.85 299.41"/>
  <path stroke="#928246" vector-effect="non-scaling-stroke" d="M 223.85 299.41 L 223.91 280.58"/>
  <path stroke="#929296" vector-effect="non-scaling-stroke" d="M 153.32 255.86 Q 153.36 256.46, 153.87 257.5"/>
  <path stroke="#929296" vector-effect="non-scaling-stroke" d="M 153.74 258.24 L 152.47 257.03 A 0.55 0.55 35.02 0 0 151.6 257.18 L 151.45 257.49 A 0.62 0.61 36.69 0 0 151.56 258.2 L 155.84 262.44"/>
  <path stroke="#929296" vector-effect="non-scaling-stroke" d="M 160.27 274.27 Q 159.54 275.53, 159.52 276.81 A 0.62 0.61 -86.28 0 0 160.05 277.42 L 161.37 277.59"/>
  <path stroke="#928246" vector-effect="non-scaling-stroke" d="M 173.63 283.41 L 165.43 305.1"/>
  <path stroke="#927c2d" vector-effect="non-scaling-stroke" d="M 165.43 305.1 L 162.4 312.81 A 0.81 0.79 -80.52 0 1 161.71 313.32 L 158.18 313.54"/>
  <path stroke="#929296" vector-effect="non-scaling-stroke" d="M 158.18 313.54 Q 156.07 312.66, 153.11 313.67"/>
  <path stroke="#927c2d" vector-effect="non-scaling-stroke" d="M 153.11 313.67 L 150.1 313.38 A 1.19 1.17 72.91 0 1 149.31 312.95 Q 148.77 312.29, 148.7 311.31"/>
  <path stroke="#929296" vector-effect="non-scaling-stroke" d="M 148.7 311.31 L 149.19 311.06 A 0.53 0.52 -27.94 0 0 149.42 310.33 L 145.62 303.44"/>
  <path stroke="#928246" vector-effect="non-scaling-stroke" d="M 145.62 303.44 L 137.14 280.92"/>
  <path stroke="#929296" vector-effect="non-scaling-stroke" d="M 141.33 235.44 L 138.79 240.5 A 0.65 0.64 85.62 0 0 139.74 241.32 L 144.32 238.05 A 0.48 0.48 -43.67 0 0 144.34 237.29 L 141.86 235.3"/>
  <path stroke="#929296" vector-effect="non-scaling-stroke" d="M 158.56 234.92 Q 155.94 235.67, 153.92 237.41 A 0.65 0.65 -20.85 0 1 152.84 236.93 L 152.82 235.14"/>
  <path stroke="#fff0b0" vector-effect="non-scaling-stroke" d="M 145.62 303.44 L 143.75 303.77"/>
  <path stroke="#feda47" vector-effect="non-scaling-stroke" d="M 143.75 303.77 Q 125.08 300.93, 106.33 302.68 Q 100.03 303.26, 91.7 305.32"/>
  <path stroke="#fff0b0" vector-effect="non-scaling-stroke" d="M 91.7 305.32 Q 92.3 301.8, 94.17 298.81 A 0.63 0.63 13.95 0 0 93.59 297.85 Q 91.79 297.98, 90.04 299.12 A 0.87 0.86 -23.11 0 0 89.67 300.03 L 90.75 304.66"/>
  <path stroke="#feda47" vector-effect="non-scaling-stroke" d="M 90.75 304.66 Q 88.01 299.57, 82.58 302.91"/>
  <path stroke="#fff0b0" vector-effect="non-scaling-stroke" d="M 96.55 281.78 L 94.88 286.22 A 0.61 0.61 -43.89 0 1 93.73 286.2 Q 93.38 285.11, 92.43 285.03 A 0.7 0.69 17.14 0 0 91.76 285.38 L 87.77 292.28 A 0.39 0.39 -70.05 0 0 88.04 292.86 Q 92.08 293.66, 93.55 290.47 A 2.86 2.81 -8.46 0 1 94.29 289.49 Q 98.16 286.26, 100.47 282.43"/>
  <path stroke="#ffea96" vector-effect="non-scaling-stroke" d="M 345.39 302.06 C 347.23 304.29, 350.16 304.93, 351.7 308.14 A 1.24 1.24 63.75 0 1 351.14 309.79 L 349.71 310.52 A 0.98 0.97 62.78 0 1 348.39 310.09 L 346.73 306.86 A 0.98 0.98 -1.79 0 0 346.25 306.41 C 343.92 305.39, 341.26 304.64, 340.48 301.77"/>
  <path stroke="#fee876" vector-effect="non-scaling-stroke" d="M 313.96 280.54 L 309.02 281.3"/>
  <path stroke="#ffea96" vector-effect="non-scaling-stroke" d="M 90.75 304.66 Q 91.37 305.59, 91.7 305.32"/>
  <path stroke="#ffea96" vector-effect="non-scaling-stroke" d="M 143.75 303.77 Q 143.57 306.53, 142.33 308.08 Q 141.06 309.67, 142.1 311.42 A 2.2 2.19 65.49 0 0 144.66 312.38 Q 146.6 311.74, 148.7 311.31"/>
  <path stroke="#ffea96" vector-effect="non-scaling-stroke" d="M 153.11 313.67 Q 154.38 315.68, 157.63 316.04 Q 158.99 316.19, 158.98 315.26 Q 158.98 314.55, 158.18 313.54"/>
  <path stroke="#ffea96" vector-effect="non-scaling-stroke" d="M 221.6 300.69 Q 220.44 301.52, 219.75 302.49 A 0.66 0.65 -38.27 0 0 219.67 303.13 Q 220.12 304.21, 222.19 303.73"/>
</g>
  <path fill="#ffffff" fill-rule="nonzero" d="M 500 0 L 500 500 L 0 500 L 0 0 L 500 0 Z M 236.23 195.28 Q 235.7 195.28, 235.52 194.47 C 234.76 190.87, 234.47 187.36, 233.8 184 Q 233.41 182.03, 234.94 181.89 A 0.37 0.36 56.13 0 0 235.07 181.2 L 234.47 180.9 A 0.72 0.72 26.39 0 1 234.14 179.93 L 234.6 178.98 A 1.11 1.1 -49.74 0 0 234.51 177.84 L 232.37 174.85 A 0.55 0.55 40.69 0 0 231.43 174.92 L 229.89 178.05 A 1.51 1.48 42.46 0 0 229.97 179.54 L 230.37 180.16 A 0.63 0.62 -25.73 0 1 230.04 181.09 Q 229.74 181.2, 229.29 181.63 A 0.28 0.28 34.04 0 0 229.38 182.09 L 230.55 182.53 A 0.93 0.93 13.06 0 1 231.15 183.49 L 229.98 195.25 A 0.79 0.79 41.64 0 1 228.42 195.34 L 225.95 184.15 A 1.23 1.22 65.77 0 1 226.42 182.9 Q 226.64 182.73, 227.28 182.58 A 0.44 0.43 -27.39 0 0 227.51 181.87 Q 227.37 181.71, 226.76 181.42 A 0.75 0.75 -34.03 0 1 226.42 180.42 L 226.83 179.59 A 0.98 0.96 -50.14 0 0 226.75 178.59 L 224.48 175.41 A 0.48 0.47 40.54 0 0 223.67 175.47 L 221.88 179.09 A 0.84 0.83 -49.99 0 0 221.95 179.96 L 222.57 180.82 A 0.58 0.58 56.81 0 1 222.4 181.65 Q 221.75 182.04, 221.53 182.5 A 0.41 0.41 9.13 0 0 221.95 183.08 Q 223.24 182.91, 223.28 183.75 Q 223.58 190.26, 222.89 195.9 A 0.73 0.73 19.42 0 1 221.78 196.43 Q 221.5 196.25, 221.36 195.94 Q 219.8 192.31, 218.41 185.2 Q 218.28 184.55, 218.62 184.32 Q 219.02 184.07, 219.51 183.94 C 219.8 183.86, 219.91 183.4, 219.73 183.16 Q 219.56 182.93, 219.14 182.91 Q 218.8 182.89, 218.62 182.78 A 0.6 0.6 -64.82 0 1 218.37 182.08 L 218.7 181.07 A 0.82 0.81 36.53 0 0 218.59 180.36 L 216.22 177.05 A 0.57 0.57 38.13 0 0 215.22 177.17 L 213.89 180.48 A 1.46 1.44 -58.8 0 0 214.28 182.11 Q 215.1 182.83, 213.91 183.99 A 0.44 0.44 -64.25 0 0 214.17 184.74 L 215.01 184.82 A 0.76 0.75 0.53 0 1 215.68 185.49 Q 216.22 191.24, 215.85 197.34 Q 215.82 197.88, 215.25 197.93 Q 214.76 197.98, 214.58 197.63 Q 212.22 193.15, 211.19 187.5 A 0.82 0.82 67.27 0 1 211.52 186.69 L 212.08 186.29 A 0.52 0.52 35.29 0 0 211.92 185.37 Q 210.64 185.01, 211.12 183.79 A 0.67 0.67 -51.38 0 0 211.05 183.15 L 208.68 179.84 A 0.66 0.66 -52.36 0 0 207.52 179.99 L 206.19 183.54 A 0.96 0.95 31.4 0 0 206.45 184.59 Q 207.04 185.11, 207.3 185.37 Q 207.64 185.72, 207.09 186.14 Q 206.82 186.34, 206.43 186.99 A 0.42 0.41 -71.5 0 0 206.74 187.62 L 207.72 187.72 A 0.77 0.76 85.69 0 1 208.39 188.3 Q 209.78 193.77, 209.99 201.18 A 0.95 0.94 76.9 0 1 209.44 202.07 C 207.24 203.09, 207.53 205.35, 209.24 206.85 Q 210.42 207.9, 209.71 209.4 C 208.72 211.5, 208.2 213.31, 210.75 214.18 Q 213.58 215.13, 218.01 215.84 Q 224.88 216.95, 236.24 216.94 Q 247.61 216.94, 254.48 215.83 Q 258.91 215.11, 261.74 214.16 C 264.29 213.28, 263.76 211.47, 262.77 209.37 Q 262.06 207.88, 263.24 206.82 C 264.95 205.32, 265.24 203.06, 263.04 202.04 A 0.95 0.94 -76.96 0 1 262.48 201.15 Q 262.69 193.74, 264.07 188.27 A 0.77 0.76 -85.75 0 1 264.74 187.69 L 265.72 187.59 A 0.42 0.41 71.44 0 0 266.03 186.96 Q 265.64 186.31, 265.37 186.11 Q 264.82 185.69, 265.16 185.34 Q 265.42 185.08, 266.01 184.56 A 0.96 0.95 -31.46 0 0 266.27 183.51 L 264.93 179.96 A 0.66 0.66 52.31 0 0 263.77 179.81 L 261.41 183.13 A 0.67 0.67 51.33 0 0 261.34 183.77 Q 261.82 184.99, 260.54 185.35 A 0.52 0.52 -35.34 0 0 260.38 186.27 L 260.94 186.67 A 0.82 0.82 -67.33 0 1 261.27 187.48 Q 260.25 193.13, 257.89 197.61 Q 257.71 197.96, 257.22 197.91 Q 256.65 197.86, 256.62 197.32 Q 256.25 191.22, 256.78 185.47 A 0.76 0.75 -0.59 0 1 257.45 184.8 L 258.29 184.72 A 0.44 0.44 64.2 0 0 258.55 183.97 Q 257.36 182.81, 258.18 182.09 A 1.46 1.44 58.75 0 0 258.57 180.46 L 257.23 177.15 A 0.57 0.57 -38.19 0 0 256.23 177.03 L 253.86 180.34 A 0.82 0.81 -36.59 0 0 253.76 181.05 L 254.09 182.06 A 0.6 0.6 64.76 0 1 253.84 182.76 Q 253.66 182.87, 253.32 182.89 Q 252.9 182.91, 252.73 183.14 C 252.55 183.38, 252.66 183.84, 252.95 183.92 Q 253.44 184.05, 253.84 184.3 Q 254.18 184.53, 254.05 185.18 Q 252.67 192.29, 251.11 195.93 Q 250.97 196.24, 250.69 196.42 A 0.73 0.73 -19.48 0 1 249.58 195.89 Q 248.88 190.25, 249.18 183.74 Q 249.22 182.9, 250.51 183.07 A 0.41 0.41 -9.18 0 0 250.93 182.49 Q 250.71 182.03, 250.06 181.64 A 0.58 0.58 -56.87 0 1 249.89 180.81 L 250.5 179.95 A 0.84 0.83 49.94 0 0 250.57 179.08 L 248.78 175.46 A 0.48 0.47 -40.59 0 0 247.97 175.4 L 245.7 178.58 A 0.98 0.96 50.09 0 0 245.62 179.58 L 246.04 180.41 A 0.75 0.75 26.51 0 1 245.7 181.41 Q 245.09 181.7, 244.95 181.86 A 0.44 0.43 27.33 0 0 245.18 182.57 Q 245.82 182.72, 246.04 182.89 A 1.23 1.22 -65.83 0 1 246.51 184.14 L 244.05 195.33 A 0.79 0.79 -41.69 0 1 242.49 195.24 L 241.31 183.49 A 0.93 0.93 -13.12 0 1 241.91 182.52 L 243.08 182.08 A 0.28 0.28 -34.09 0 0 243.17 181.62 Q 242.72 181.19, 242.42 181.08 A 0.63 0.62 25.67 0 1 242.08 180.15 L 242.48 179.53 A 1.51 1.48 -42.52 0 0 242.56 178.04 L 241.02 174.92 A 0.55 0.55 -40.74 0 0 240.08 174.85 L 237.94 177.84 A 1.11 1.1 49.69 0 0 237.85 178.98 L 238.31 179.93 A 0.72 0.72 -26.44 0 1 237.99 180.9 L 237.39 181.2 A 0.37 0.36 -56.19 0 0 237.52 181.89 Q 239.05 182.03, 238.66 184 C 237.99 187.36, 237.71 190.87, 236.94 194.47 Q 236.77 195.28, 236.23 195.28 Z M 417.55 213.08 A 8.75 8.75 0 0 0 408.8 204.33 A 8.75 8.75 0 0 0 400.05 213.08 A 8.75 8.75 0 0 0 408.8 221.83 A 8.75 8.75 0 0 0 417.55 213.08 Z M 82.56 289.16 L 82.58 302.91 L 82.58 325.35 A 0.48 0.48 10.26 0 0 83.06 325.83 L 97.57 325.83 A 0.58 0.58 -7.91 0 0 98.13 325.09 Q 97.03 321.2, 100.06 318.16 A 0.73 0.72 29.43 0 1 100.75 317.97 Q 105.28 319.11, 107.78 321.19 A 0.4 0.4 -70.12 0 0 108.44 320.88 L 108.44 317.35 A 0.86 0.86 38.86 0 1 110.14 317.17 L 110.72 319.78 A 1.05 1.04 -7.78 0 0 111.8 320.59 Q 114.4 320.44, 115.15 320.51 Q 116.12 320.6, 116.49 320.99 Q 116.54 321.03, 116.98 322.43 A 0.34 0.34 58.77 0 0 117.55 322.57 Q 119.47 320.62, 121.38 321.86 Q 123.29 323.1, 123.11 324.71 A 1.02 1.02 -86.73 0 0 124.12 325.85 Q 152.38 325.9, 178.83 325.86 C 180.61 325.86, 181.96 324.92, 183.41 325.37 Q 184.89 325.83, 186.63 325.84 Q 201.55 325.96, 212.93 325.78 A 0.4 0.39 -13.92 0 0 213.28 325.21 L 210.46 319.7 A 0.64 0.63 54.85 0 1 210.58 318.96 C 213.64 315.94, 220.99 313.01, 223.33 318.24 A 0.61 0.61 -42.94 0 1 223.31 318.79 L 219.46 325.44 A 0.26 0.26 14.63 0 0 219.69 325.83 L 300.37 325.83 A 0.79 0.78 1.94 0 0 301.16 325.1 Q 301.21 324.21, 300.94 323.5 A 0.73 0.72 51.37 0 0 299.66 323.35 Q 299 324.32, 298.33 324.81 A 0.6 0.6 77.84 0 1 297.39 324.2 Q 297.74 322.49, 297.33 320.01 A 1.79 1.79 -80.1 0 0 296.44 318.74 Q 294.06 317.41, 291.87 317.24 A 0.54 0.53 -63.54 0 1 291.56 316.3 Q 293.53 314.58, 293.85 313.48 L 296.1 311.17 A 0.33 0.33 53.52 0 1 296.63 311.25 L 297.72 313.35 Q 298.23 315.69, 301.1 316.12 Q 305.94 316.86, 306.84 316.98 A 1.25 1.24 -78.06 0 1 307.87 318.57 Q 307.07 321.29, 304.3 322.44 A 0.88 0.87 65.32 0 0 303.86 323.65 L 304.74 325.36 A 0.65 0.64 -10.41 0 0 305.27 325.72 Q 309.23 326.12, 311.73 325.06 A 1.23 1.21 -43.01 0 1 312.77 325.09 L 313.85 325.61 A 2.15 2.04 -30.6 0 0 314.77 325.82 L 336.25 325.82 A 0.52 0.52 77.15 0 0 336.72 325.07 C 335.95 323.49, 334.79 320.75, 337.71 320.21 Q 339.23 319.92, 340.97 320.65 Q 347.85 323.54, 351.56 325.34 A 4.71 4.7 57.98 0 0 353.63 325.82 L 376.34 325.82 A 0.42 0.42 60.45 0 0 376.55 325.04 C 371.88 322.2, 379.45 317.09, 381.76 322.93 Q 382.36 324.43, 382.36 325.02 A 0.78 0.78 0.37 0 0 383.13 325.8 L 389.18 325.82 A 0.82 0.82 -89.65 0 0 390 325.01 L 390.06 298.12 L 390.08 280.25 L 390.15 222.65 A 0.86 0.85 90 0 0 389.3 221.79 L 383.93 221.79 A 0.96 0.95 -87 0 0 382.98 222.65 L 382.9 223.5 A 1.47 1.47 -60.44 0 1 380.26 224.23 Q 379.2 222.8, 378.17 222.16 A 1.95 1.88 60.53 0 0 377.13 221.85 L 265.28 221.85 A 0.82 0.82 -3.97 0 0 264.47 222.78 C 264.83 225.38, 262.1 227.52, 261.02 228.95 A 1.66 1.63 10.25 0 1 260.12 229.56 Q 258.05 230.13, 257.13 229.98 A 1.33 1.33 -54.14 0 1 256.73 227.49 L 259.94 225.78 A 0.68 0.61 -3.17 0 0 260.22 225.5 Q 261.03 223.95, 260.54 222.42 A 0.83 0.82 80.61 0 0 259.76 221.85 L 83.09 221.85 A 0.55 0.55 -84.18 0 0 82.54 222.4 L 82.56 289.16 Z M 111.15 325.28 Q 108.38 322.9, 105.1 323.34 A 1.45 1.44 12.03 0 0 104.06 324.01 Q 103.72 324.55, 102.93 324.97 A 0.41 0.41 -58.97 0 0 103.12 325.74 L 110.98 325.74 A 0.26 0.26 -24.76 0 0 111.15 325.28 Z M 116.77 325.54 Q 117.65 326.1, 118.11 325.64 A 0.46 0.43 -61.04 0 0 117.92 324.88 Q 117.23 324.72, 116.79 324.96 A 0.33 0.33 47.11 0 0 116.77 325.54 Z M 416.21 213.1 A 7.43 7.43 0 0 1 408.78 220.53 A 7.43 7.43 0 0 1 401.35 213.1 A 7.43 7.43 0 0 1 408.78 205.67 A 7.43 7.43 0 0 1 416.21 213.1 Z M 406.76 214.99 A 1.16 1.16 45.25 0 1 408.67 215 L 409.91 216.83 A 1.62 1.6 72.81 0 0 411.24 217.54 L 411.76 217.54 A 0.49 0.49 72.47 0 0 412.16 216.77 L 410.95 215.09 A 0.75 0.74 -39.43 0 1 411.05 214.11 C 412.91 212.39, 412.61 209.36, 409.97 208.9 Q 407.8 208.52, 405.73 208.76 A 0.67 0.66 -3.41 0 0 405.14 209.42 L 405.14 216.84 A 0.72 0.71 0 0 0 405.86 217.55 L 406.16 217.55 A 0.73 0.72 -3.81 0 0 406.88 216.73 Q 406.66 215.14, 406.76 214.99 Z M 410.2 212 A 1.06 1.06 0 0 1 409.13 213.05 L 407.81 213.05 A 1.06 1.06 0 0 1 406.76 211.98 L 406.76 211.52 A 1.06 1.06 0 0 1 407.83 210.47 L 409.15 210.47 A 1.06 1.06 0 0 1 410.2 211.54 L 410.2 212 Z M 210.7 232.62 A 0.97 0.97 81.51 0 1 209.6 231.8 L 209.43 230.54 A 3.21 3.18 -8.1 0 1 212.16 226.94 L 213.62 226.73 A 3.21 3.18 -8.1 0 1 217.25 229.43 L 217.43 230.69 A 0.97 0.97 32.04 0 1 216.6 231.78 L 210.7 232.62 Z M 287.77 235.34 Q 291.22 235.74, 293.03 237.04 A 0.72 0.71 -33.57 0 1 292.77 238.32 L 285.29 239.97 A 1.22 1.21 -19.27 0 1 283.93 239.32 L 281.85 235.09 Q 281.95 233.74, 281.2 231.9 A 0.67 0.67 -0.99 0 1 282.06 231.01 L 282.55 231.19 A 1.59 1.58 -9.27 0 1 283.22 231.67 Q 285.46 234.34, 287.77 235.34 Z M 158.56 234.92 Q 155.94 235.67, 153.92 237.41 A 0.65 0.65 -20.85 0 1 152.84 236.93 L 152.82 235.14 L 153.58 232.18 A 0.81 0.81 13.42 0 1 154.55 231.59 Q 157.55 232.31, 160.41 231.6 A 0.62 0.62 -73.28 0 1 160.98 232.66 L 158.56 234.92 Z M 141.86 235.3 L 144.34 237.29 A 0.48 0.48 -43.67 0 1 144.32 238.05 L 139.74 241.32 A 0.65 0.64 85.62 0 1 138.79 240.5 L 141.33 235.44 Q 142.21 235.6, 141.86 235.3 Z M 316.98 237.76 A 0.17 0.17 -86.11 0 1 317.02 237.53 L 317.08 237.48 A 2.32 2.25 53.7 0 1 320.27 238.02 L 320.8 238.74 A 2.32 2.25 53.7 0 1 320.36 241.94 L 320.3 241.99 A 0.17 0.17 -5.51 0 1 320.06 241.96 L 316.98 237.76 Z M 308.88 239.25 C 307.57 240.29, 307.39 241.81, 307.06 243.57 A 1.75 1.75 -81.72 0 1 305.17 244.98 L 304.33 244.9 A 0.79 0.79 14.43 0 1 303.68 243.8 Q 303.94 243.21, 304.29 239.64 A 2.44 2.21 -6.04 0 1 306.04 237.68 Q 307.04 237.39, 308.84 238.52 A 0.45 0.45 -48.53 0 1 308.88 239.25 Z M 205.48 239.78 A 2.5 1.69 -55.9 0 1 205.48 242.8 A 2.5 1.69 -55.9 0 1 202.68 243.92 A 2.5 1.69 -55.9 0 1 202.68 240.9 A 2.5 1.69 -55.9 0 1 205.48 239.78 Z M 162.93 241.93 A 0.7 0.7 21.9 0 1 163.77 242.44 L 163.84 242.71 A 4.28 1.47 76 0 1 163.45 247.22 L 163.12 247.3 A 4.28 1.47 76 0 1 160.66 243.51 L 160.59 243.23 A 0.7 0.7 -81.57 0 1 161.1 242.39 L 162.93 241.93 Z M 98.96 249.52 A 0.9 0.89 -59.31 0 0 97.73 249.84 Q 96.74 251.53, 95.9 251.45 A 1.44 1.3 -76.36 0 1 94.87 249.55 Q 95.64 247.47, 96.84 245.62 C 100 240.76, 105.02 243.94, 105.59 248.33 A 1.44 1.43 -8.94 0 1 104.43 249.92 Q 100.78 250.6, 98.96 249.52 Z M 379.15 246.96 A 0.29 0.29 -83.72 0 1 379.55 247.04 L 382.28 251.12 A 4.02 0.94 56.2 0 1 383.74 254.98 L 383.47 255.16 A 4.02 0.94 56.2 0 1 380.45 252.34 L 377.72 248.26 A 0.29 0.29 -2.11 0 1 377.8 247.86 L 379.15 246.96 Z M 166.79 261.17 A 0.44 0.44 -11.99 0 1 166.14 260.75 L 166.64 255.83 A 1.08 1.08 18.04 0 0 166.11 254.79 L 165.02 254.16 A 0.85 0.84 15.56 0 1 164.59 253.41 Q 164.62 249.74, 167.82 248.26 A 0.92 0.91 -24.65 0 1 169.05 248.71 C 169.86 250.49, 170 251.4, 171.52 252.63 Q 174.07 254.7, 173.55 258.93 A 0.7 0.7 5.92 0 1 172.79 259.54 L 170.79 259.34 A 2.05 2.04 33.41 0 0 169.57 259.59 L 166.79 261.17 Z M 153.87 257.5 Q 153.36 256.46, 153.32 255.86 L 154.5 251.06 A 1.08 1.08 -80.02 0 1 155.65 250.25 L 159.83 250.67 A 1.29 1.29 32.59 0 1 160.36 253.07 C 158.64 254.08, 154.52 255.73, 153.87 257.5 Z M 185.18 269.78 Q 188.3 267.8, 189.03 262.36 A 1.48 1.43 -53.85 0 0 188.92 261.56 Q 188.54 260.72, 188.1 258.83 A 1.59 1.46 -83.21 0 1 190.22 257.01 Q 190.46 257.14, 190.98 257.17 A 0.97 0.95 17.74 0 0 191.84 256.74 C 192.91 255.11, 194.68 252.86, 196.78 253.4 A 1.92 1.91 -64.86 0 1 197.85 256.38 Q 196.72 257.96, 195.61 260.2 A 1.56 1.56 1.09 0 1 194.84 260.94 Q 194.07 261.3, 193.48 261.36 A 1.08 1.08 -9.34 0 0 192.53 262.68 C 193.02 264.83, 194.79 268.96, 192.3 271.37 A 1.67 1.67 -64.29 0 1 190.96 271.84 L 185.54 271.3 A 0.83 0.83 -58.34 0 1 185.18 269.78 Z M 153.74 258.24 Q 158.77 262.43, 155.84 262.44 L 151.56 258.2 A 0.62 0.61 36.69 0 1 151.45 257.49 L 151.6 257.18 A 0.55 0.55 35.02 0 1 152.47 257.03 L 153.74 258.24 Z M 162.74 264.44 Q 160.56 264.07, 159.13 262.94 A 0.65 0.64 34.43 0 1 158.97 262.11 L 160.4 259.64 A 0.47 0.47 -43.55 0 1 161.22 259.66 L 163.29 263.7 A 0.52 0.51 -8.47 0 1 162.74 264.44 Z M 347.78 265.5 A 1.99 1.64 89.75 0 1 345.54 262.8 Q 345.75 262.33, 347.28 261.28 A 0.49 0.49 62.66 0 1 348.02 261.52 Q 349.15 264.55, 347.78 265.5 Z M 145.9 266.69 L 149.86 268.66 A 0.5 0.5 51.73 0 1 149.75 269.6 L 146.78 270.26 A 0.89 0.89 -64.95 0 1 145.72 269.58 L 145.2 267.24 A 0.49 0.49 6.83 0 1 145.9 266.69 Z M 376.1 270.61 Q 375.4 271.35, 372.84 272.1 A 0.43 0.43 -5.56 0 1 372.29 271.65 L 372.58 268.76 A 0.94 0.94 19.43 0 1 374.03 268.07 L 375.95 269.33 A 0.84 0.84 38.35 0 1 376.1 270.61 Z M 102.96 279.41 Q 102.25 276.74, 99.32 276.15 A 0.83 0.83 16.38 0 1 98.71 275.04 L 100.11 271.3 A 1.08 1.08 61.45 0 1 102.17 271.91 Q 102.07 272.4, 102.17 272.92 A 1.2 1.18 -84.77 0 0 102.87 273.77 Q 104.92 274.6, 105.81 275.57 A 0.96 0.96 46.41 0 0 107.2 275.61 Q 109.05 273.75, 110.44 273.29 A 0.67 0.67 -88.7 0 1 111.28 274.17 L 109.57 278.73 A 1.8 1.78 -79.52 0 1 107.9 279.89 L 103.58 279.89 A 0.65 0.64 82.31 0 1 102.96 279.41 Z M 161.37 277.59 L 160.05 277.42 A 0.62 0.61 -86.28 0 1 159.52 276.81 Q 159.54 275.53, 160.27 274.27 Q 161.34 273.53, 161.94 272.68 A 1.41 1.4 -50.97 0 1 164.02 272.46 Q 165.3 273.62, 166.02 275.15 A 0.91 0.9 -20.88 0 1 165.45 276.41 L 161.37 277.59 Z M 120.23 273.59 A 0.16 0.16 -84.54 0 1 120.29 273.37 L 120.36 273.34 A 2.76 2.47 61.8 0 1 123.84 274.6 L 124.06 275.02 A 2.76 2.47 61.8 0 1 123.19 278.62 L 123.13 278.66 A 0.16 0.16 30.75 0 1 122.91 278.59 L 120.23 273.59 Z M 348.04 272.86 Q 349.42 274.8, 348.79 277.45 A 0.93 0.91 87.82 0 1 348.19 278.11 Q 345.89 278.91, 344.64 276.2 Q 345.25 275.27, 344.16 273.84 A 0.56 0.56 70.73 0 1 344.59 272.94 L 348.04 272.86 Z M 328.3 276.38 L 331.39 276.69 A 0.89 0.89 5.52 0 1 332.19 277.66 L 332.06 278.9 A 1.15 1.14 12.37 0 1 330.54 279.87 Q 328.71 279.24, 328.05 276.67 A 0.24 0.23 -4.38 0 1 328.3 276.38 Z M 143.43 280.92 A 0.51 0.51 0 0 1 142.82 281.3 L 141.83 281.06 A 0.51 0.51 0 0 1 141.45 280.45 L 142.19 277.38 A 0.51 0.51 0 0 1 142.8 277 L 143.79 277.24 A 0.51 0.51 0 0 1 144.17 277.85 L 143.43 280.92 Z M 118.53 281.49 Q 116.29 282.93, 112.25 280.54 Q 114.58 278.75, 118.05 278.22 A 1.13 1.13 -83.03 0 1 119.26 279.77 L 118.53 281.49 Z M 265.43 280.62 Q 264.8 281.34, 264.59 281.92 A 0.54 0.53 16.6 0 0 264.97 282.62 Q 266.9 283.06, 266.95 285.37 A 1.3 1.3 62.81 0 1 266.69 286.18 L 264.7 288.79 A 2.38 2.36 63.56 0 0 264.23 290.21 L 264.23 295.53 A 2.41 2.39 -20.44 0 1 263.39 297.35 L 263.09 297.61 A 0.61 0.6 -23.14 0 1 262.11 297.22 Q 261.48 292.58, 263.69 288.03 A 0.61 0.61 6.42 0 0 263 287.17 L 260.94 287.62 A 0.57 0.57 18.32 0 1 260.44 286.63 Q 262.26 285.07, 261.11 281.48 Q 263.65 277.77, 265.43 280.62 Z M 100.47 282.43 Q 98.16 286.26, 94.29 289.49 A 2.86 2.81 -8.46 0 0 93.55 290.47 Q 92.08 293.66, 88.04 292.86 A 0.39 0.39 -70.05 0 1 87.77 292.28 L 91.76 285.38 A 0.7 0.69 17.14 0 1 92.43 285.03 Q 93.38 285.11, 93.73 286.2 A 0.61 0.61 -43.89 0 0 94.88 286.22 L 96.55 281.78 Q 99.64 279.4, 100.47 282.43 Z M 136.13 285.51 A 1.01 1.01 0 0 1 135.99 286.94 L 135.93 286.99 A 1.01 1.01 0 0 1 134.51 286.85 L 131.99 283.79 A 1.01 1.01 0 0 1 132.13 282.36 L 132.19 282.31 A 1.01 1.01 0 0 1 133.61 282.45 L 136.13 285.51 Z M 303.29 282.64 Q 303.97 283.15, 303.76 284.53 A 0.89 0.88 84.69 0 1 303.18 285.24 Q 301.27 285.92, 300.97 285.69 Q 300.67 285.46, 300.81 283.44 A 0.89 0.88 -10.31 0 1 301.34 282.69 Q 302.61 282.12, 303.29 282.64 Z M 249.67 284.67 A 2.65 1.02 -159.3 0 1 252.51 284.66 A 2.65 1.02 -159.3 0 1 254.63 286.55 A 2.65 1.02 -159.3 0 1 251.79 286.56 A 2.65 1.02 -159.3 0 1 249.67 284.67 Z M 105.47 291.52 Q 107.06 293.34, 106.08 295.54 A 1.59 1.47 44.14 0 1 103.33 295.48 Q 102.79 294.46, 102.41 293.93 A 1.92 1.91 -15.02 0 0 101.02 293.13 Q 98.72 292.92, 96.19 293.63 A 0.97 0.97 85.07 0 1 94.97 292.6 L 95.03 292.06 A 2.23 2.21 86.59 0 1 96.75 290.11 Q 101.07 289.14, 104.91 291.08 A 2.02 2 -6.59 0 1 105.47 291.52 Z M 345.39 302.06 C 347.23 304.29, 350.16 304.93, 351.7 308.14 A 1.24 1.24 63.75 0 1 351.14 309.79 L 349.71 310.52 A 0.98 0.97 62.78 0 1 348.39 310.09 L 346.73 306.86 A 0.98 0.98 -1.79 0 0 346.25 306.41 C 343.92 305.39, 341.26 304.64, 340.48 301.77 L 340.1 298.41 A 0.77 0.77 -82.79 0 1 341.14 297.6 L 343.45 298.47 A 1.18 1.14 87.84 0 1 344.12 299.11 L 345.39 302.06 Z M 91.7 305.32 Q 91.37 305.59, 90.75 304.66 L 89.67 300.03 A 0.87 0.86 -23.11 0 1 90.04 299.12 Q 91.79 297.98, 93.59 297.85 A 0.63 0.63 13.95 0 1 94.17 298.81 Q 92.3 301.8, 91.7 305.32 Z M 223.85 299.41 Q 224.07 302.39, 222.19 303.73 Q 220.12 304.21, 219.67 303.13 A 0.66 0.65 -38.27 0 1 219.75 302.49 Q 220.44 301.52, 221.6 300.69 Q 222.8 299.11, 223.85 299.41 Z M 300.32 301.46 L 304.51 303.88 A 0.46 0.46 53.89 0 1 304.38 304.73 L 302.6 305.13 A 1.17 1.17 -19.65 0 1 301.31 304.52 L 299.93 301.83 A 0.28 0.28 -88.34 0 1 300.32 301.46 Z M 145.62 303.44 L 149.42 310.33 A 0.53 0.52 -27.94 0 1 149.19 311.06 L 148.7 311.31 Q 146.6 311.74, 144.66 312.38 A 2.2 2.19 65.49 0 1 142.1 311.42 Q 141.06 309.67, 142.33 308.08 Q 143.57 306.53, 143.75 303.77 L 145.62 303.44 Z M 84.24 310.83 A 0.5 0.5 46.66 0 1 83.81 310.27 L 83.96 309.14 A 3.4 1.14 -82.6 0 1 85.53 305.92 L 85.92 305.97 A 3.4 1.14 -82.6 0 1 86.62 309.49 L 86.47 310.62 A 0.5 0.5 -51.37 0 1 85.91 311.05 L 84.24 310.83 Z M 193 311.44 A 0.49 0.49 41.78 0 1 193.41 312 L 193.39 312.18 A 2.89 2.85 -81.2 0 1 190.13 314.6 L 190.05 314.58 A 2.89 2.85 -81.2 0 1 187.67 311.29 L 187.7 311.11 A 0.49 0.49 45.22 0 1 188.26 310.7 L 193 311.44 Z M 83.14 313.11 A 0.94 0.94 27.3 0 1 84.84 312.57 L 86.76 315.25 A 0.69 0.69 75.18 0 1 86.13 316.34 L 84.39 316.17 A 1.39 1.38 -87.27 0 1 83.14 314.79 L 83.14 313.11 Z M 344.67 319.15 L 347.04 312.85 A 0.35 0.34 29.06 0 1 347.58 312.7 L 351.19 315.59 A 1.45 1.44 -39.21 0 1 350.94 318 L 346.14 320.46 A 1.06 1.05 -3.16 0 1 344.67 319.15 Z M 369.48 317.91 A 0.44 0.44 16.95 0 1 369.1 317.2 L 372.39 313.09 A 0.34 0.34 58.26 0 1 372.98 313.23 L 373.89 317.34 A 0.66 0.65 0.3 0 1 373.1 318.12 Q 371.59 317.75, 369.48 317.91 Z M 158.18 313.54 Q 158.98 314.55, 158.98 315.26 Q 158.99 316.19, 157.63 316.04 Q 154.38 315.68, 153.11 313.67 Q 156.07 312.66, 158.18 313.54 Z M 127.47 319.94 Q 124.21 320.42, 121.92 319.59 A 2.16 2.15 -80.2 0 1 120.49 317.56 L 120.49 314.72 A 1.25 1.25 10.24 0 1 122.18 313.55 L 126.32 315.11 A 0.53 0.52 -66.78 0 1 126.6 315.83 Q 126.31 316.45, 125.79 316.99 A 0.64 0.64 -46.56 0 0 125.81 317.9 Q 126.59 318.61, 127.57 318.99 A 0.49 0.49 51.03 0 1 127.47 319.94 Z M 252.03 319.77 A 0.22 0.22 -80.52 0 1 251.73 319.69 L 251.64 319.54 A 3.75 1.85 60 0 1 251.37 315.37 L 251.42 315.34 A 3.75 1.85 60 0 1 254.9 317.66 L 254.98 317.81 A 0.22 0.22 1.77 0 1 254.9 318.11 L 252.03 319.77 Z"/>
  <path fill="#25242c" fill-rule="nonzero" d="M 236.24 216.94 Q 224.88 216.95, 218.01 215.84 Q 213.58 215.13, 210.75 214.18 C 208.2 213.31, 208.72 211.5, 209.71 209.4 Q 210.42 207.9, 209.24 206.85 C 207.53 205.35, 207.24 203.09, 209.44 202.07 A 0.95 0.94 76.9 0 0 209.99 201.18 Q 209.78 193.77, 208.39 188.3 A 0.77 0.76 85.69 0 0 207.72 187.72 L 206.74 187.62 A 0.42 0.41 -71.5 0 1 206.43 186.99 Q 206.82 186.34, 207.09 186.14 Q 207.64 185.72, 207.3 185.37 Q 207.04 185.11, 206.45 184.59 A 0.96 0.95 31.4 0 1 206.19 183.54 L 207.52 179.99 A 0.66 0.66 -52.36 0 1 208.68 179.84 L 211.05 183.15 A 0.67 0.67 -51.38 0 1 211.12 183.79 Q 210.64 185.01, 211.92 185.37 A 0.52 0.52 35.29 0 1 212.08 186.29 L 211.52 186.69 A 0.82 0.82 67.27 0 0 211.19 187.5 Q 212.22 193.15, 214.58 197.63 Q 214.76 197.98, 215.25 197.93 Q 215.82 197.88, 215.85 197.34 Q 216.22 191.24, 215.68 185.49 A 0.76 0.75 0.53 0 0 215.01 184.82 L 214.17 184.74 A 0.44 0.44 -64.25 0 1 213.91 183.99 Q 215.1 182.83, 214.28 182.11 A 1.46 1.44 -58.8 0 1 213.89 180.48 L 215.22 177.17 A 0.57 0.57 38.13 0 1 216.22 177.05 L 218.59 180.36 A 0.82 0.81 36.53 0 1 218.7 181.07 L 218.37 182.08 A 0.6 0.6 -64.82 0 0 218.62 182.78 Q 218.8 182.89, 219.14 182.91 Q 219.56 182.93, 219.73 183.16 C 219.91 183.4, 219.8 183.86, 219.51 183.94 Q 219.02 184.07, 218.62 184.32 Q 218.28 184.55, 218.41 185.2 Q 219.8 192.31, 221.36 195.94 Q 221.5 196.25, 221.78 196.43 A 0.73 0.73 19.42 0 0 222.89 195.9 Q 223.58 190.26, 223.28 183.75 Q 223.24 182.91, 221.95 183.08 A 0.41 0.41 9.13 0 1 221.53 182.5 Q 221.75 182.04, 222.4 181.65 A 0.58 0.58 56.81 0 0 222.57 180.82 L 221.95 179.96 A 0.84 0.83 -49.99 0 1 221.88 179.09 L 223.67 175.47 A 0.48 0.47 40.54 0 1 224.48 175.41 L 226.75 178.59 A 0.98 0.96 -50.14 0 1 226.83 179.59 L 226.42 180.42 A 0.75 0.75 -57.75 0 0 226.76 181.42 Q 227.37 181.71, 227.51 181.87 A 0.44 0.43 -27.39 0 1 227.28 182.58 Q 226.64 182.73, 226.42 182.9 A 1.23 1.22 65.77 0 0 225.95 184.15 L 228.42 195.34 A 0.79 0.79 41.64 0 0 229.98 195.25 L 231.15 183.49 A 0.93 0.93 13.06 0 0 230.55 182.53 L 229.38 182.09 A 0.28 0.28 34.04 0 1 229.29 181.63 Q 229.74 181.2, 230.04 181.09 A 0.63 0.62 -25.73 0 0 230.37 180.16 L 229.97 179.54 A 1.51 1.48 42.46 0 1 229.89 178.05 L 231.43 174.92 A 0.55 0.55 40.69 0 1 232.37 174.85 L 234.51 177.84 A 1.11 1.1 -49.74 0 1 234.6 178.98 L 234.14 179.93 A 0.72 0.72 26.39 0 0 234.47 180.9 L 235.07 181.2 A 0.37 0.36 56.13 0 1 234.94 181.89 Q 233.41 182.03, 233.8 184 C 234.47 187.36, 234.76 190.87, 235.52 194.47 Q 235.7 195.28, 236.23 195.28 Q 236.77 195.28, 236.94 194.47 C 237.71 190.87, 237.99 187.36, 238.66 184 Q 239.05 182.03, 237.52 181.89 A 0.37 0.36 -56.19 0 1 237.39 181.2 L 237.99 180.9 A 0.72 0.72 -26.44 0 0 238.31 179.93 L 237.85 178.98 A 1.11 1.1 49.69 0 1 237.94 177.84 L 240.08 174.85 A 0.55 0.55 -40.74 0 1 241.02 174.92 L 242.56 178.04 A 1.51 1.48 -42.52 0 1 242.48 179.53 L 242.08 180.15 A 0.63 0.62 25.67 0 0 242.42 181.08 Q 242.72 181.19, 243.17 181.62 A 0.28 0.28 -34.09 0 1 243.08 182.08 L 241.91 182.52 A 0.93 0.93 -13.12 0 0 241.31 183.49 L 242.49 195.24 A 0.79 0.79 -41.69 0 0 244.05 195.33 L 246.51 184.14 A 1.23 1.22 -65.83 0 0 246.04 182.89 Q 245.82 182.72, 245.18 182.57 A 0.44 0.43 27.33 0 1 244.95 181.86 Q 245.09 181.7, 245.7 181.41 A 0.75 0.75 52.21 0 0 246.04 180.41 L 245.62 179.58 A 0.98 0.96 50.09 0 1 245.7 178.58 L 247.97 175.4 A 0.48 0.47 -40.59 0 1 248.78 175.46 L 250.57 179.08 A 0.84 0.83 49.94 0 1 250.5 179.95 L 249.89 180.81 A 0.58 0.58 -56.87 0 0 250.06 181.64 Q 250.71 182.03, 250.93 182.49 A 0.41 0.41 -9.18 0 1 250.51 183.07 Q 249.22 182.9, 249.18 183.74 Q 248.88 190.25, 249.58 195.89 A 0.73 0.73 -19.48 0 0 250.69 196.42 Q 250.97 196.24, 251.11 195.93 Q 252.67 192.29, 254.05 185.18 Q 254.18 184.53, 253.84 184.3 Q 253.44 184.05, 252.95 183.92 C 252.66 183.84, 252.55 183.38, 252.73 183.14 Q 252.9 182.91, 253.32 182.89 Q 253.66 182.87, 253.84 182.76 A 0.6 0.6 64.76 0 0 254.09 182.06 L 253.76 181.05 A 0.82 0.81 -36.59 0 1 253.86 180.34 L 256.23 177.03 A 0.57 0.57 -38.19 0 1 257.23 177.15 L 258.57 180.46 A 1.46 1.44 58.75 0 1 258.18 182.09 Q 257.36 182.81, 258.55 183.97 A 0.44 0.44 64.2 0 1 258.29 184.72 L 257.45 184.8 A 0.76 0.75 -0.59 0 0 256.78 185.47 Q 256.25 191.22, 256.62 197.32 Q 256.65 197.86, 257.22 197.91 Q 257.71 197.96, 257.89 197.61 Q 260.25 193.13, 261.27 187.48 A 0.82 0.82 -67.33 0 0 260.94 186.67 L 260.38 186.27 A 0.52 0.52 -35.34 0 1 260.54 185.35 Q 261.82 184.99, 261.34 183.77 A 0.67 0.67 51.33 0 1 261.41 183.13 L 263.77 179.81 A 0.66 0.66 52.31 0 1 264.93 179.96 L 266.27 183.51 A 0.96 0.95 -31.46 0 1 266.01 184.56 Q 265.42 185.08, 265.16 185.34 Q 264.82 185.69, 265.37 186.11 Q 265.64 186.31, 266.03 186.96 A 0.42 0.41 71.44 0 1 265.72 187.59 L 264.74 187.69 A 0.77 0.76 -85.75 0 0 264.07 188.27 Q 262.69 193.74, 262.48 201.15 A 0.95 0.94 -76.96 0 0 263.04 202.04 C 265.24 203.06, 264.95 205.32, 263.24 206.82 Q 262.06 207.88, 262.77 209.37 C 263.76 211.47, 264.29 213.28, 261.74 214.16 Q 258.91 215.11, 254.48 215.83 Q 247.61 216.94, 236.24 216.94 Z M 417.55 213.08 A 8.75 8.75 0 0 1 408.8 221.83 A 8.75 8.75 0 0 1 400.05 213.08 A 8.75 8.75 0 0 1 408.8 204.33 A 8.75 8.75 0 0 1 417.55 213.08 Z M 416.21 213.1 A 7.43 7.43 0 0 0 408.78 205.67 A 7.43 7.43 0 0 0 401.35 213.1 A 7.43 7.43 0 0 0 408.78 220.53 A 7.43 7.43 0 0 0 416.21 213.1 Z M 406.76 214.99 Q 406.66 215.14, 406.88 216.73 A 0.73 0.72 -3.81 0 1 406.16 217.55 L 405.86 217.55 A 0.72 0.71 0 0 1 405.14 216.84 L 405.14 209.42 A 0.67 0.66 -3.41 0 1 405.73 208.76 Q 407.8 208.52, 409.97 208.9 C 412.61 209.36, 412.91 212.39, 411.05 214.11 A 0.75 0.74 -39.43 0 0 410.95 215.09 L 412.16 216.77 A 0.49 0.49 72.47 0 1 411.76 217.54 L 411.24 217.54 A 1.62 1.6 72.81 0 1 409.91 216.83 L 408.67 215 A 1.16 1.16 45.25 0 0 406.76 214.99 Z M 410.2 211.54 A 1.06 1.06 0 0 0 409.15 210.47 L 407.83 210.47 A 1.06 1.06 0 0 0 406.76 211.52 L 406.76 211.98 A 1.06 1.06 0 0 0 407.81 213.05 L 409.13 213.05 A 1.06 1.06 0 0 0 410.2 212 L 410.2 211.54 Z M 152.82 235.14 L 152.84 236.93 A 0.65 0.65 -20.85 0 0 153.92 237.41 Q 155.94 235.67, 158.56 234.92 L 151.36 249.46 A 1.78 1.77 -42.91 0 0 151.3 250.9 L 153.32 255.86 Q 153.36 256.46, 153.87 257.5 Q 154.04 258.59, 153.74 258.24 L 152.47 257.03 A 0.55 0.55 35.02 0 0 151.6 257.18 L 151.45 257.49 A 0.62 0.61 36.69 0 0 151.56 258.2 L 155.84 262.44 L 160.27 274.27 Q 159.54 275.53, 159.52 276.81 A 0.62 0.61 -86.28 0 0 160.05 277.42 L 161.37 277.59 L 164.75 286.61 A 0.42 0.42 38.26 0 0 165.53 286.61 L 179.07 250.63 A 1.26 1.24 41.89 0 0 179.01 249.65 L 171.96 235.87 A 0.47 0.47 76.71 0 1 172.38 235.19 L 197.34 235.19 A 0.36 0.36 -70.78 0 1 197.62 235.77 L 186.66 249.47 A 6.51 6.51 -15.43 0 0 185.62 251.3 L 173.63 283.41 L 165.43 305.1 L 162.4 312.81 A 0.81 0.79 -80.52 0 1 161.71 313.32 L 158.18 313.54 Q 156.07 312.66, 153.11 313.67 L 150.1 313.38 A 1.19 1.17 72.91 0 1 149.31 312.95 Q 148.77 312.29, 148.7 311.31 L 149.19 311.06 A 0.53 0.52 -27.94 0 0 149.42 310.33 L 145.62 303.44 L 137.14 280.92 Q 131.96 267.18, 126.45 252.79 Q 125.45 250.18, 124.95 249.55 Q 118.13 240.97, 113.9 235.74 A 0.34 0.34 -19.34 0 1 114.17 235.19 L 140.83 235.19 A 0.49 0.47 62.86 0 1 141.12 235.29 Q 141.25 235.38, 141.33 235.44 L 138.79 240.5 A 0.65 0.64 85.62 0 0 139.74 241.32 L 144.32 238.05 A 0.48 0.48 -43.67 0 0 144.34 237.29 L 141.86 235.3 L 152.82 235.14 Z M 145.72 269.58 A 0.89 0.89 -85.07 0 0 146.78 270.26 L 149.75 269.6 A 0.5 0.5 51.73 0 0 149.86 268.66 L 145.9 266.69 A 0.49 0.49 6.83 0 0 145.2 267.24 L 145.72 269.58 Z M 144.17 277.85 A 0.51 0.51 0 0 0 143.79 277.24 L 142.8 277 A 0.51 0.51 0 0 0 142.19 277.38 L 141.45 280.45 A 0.51 0.51 0 0 0 141.83 281.06 L 142.82 281.3 A 0.51 0.51 0 0 0 143.43 280.92 L 144.17 277.85 Z M 281.85 235.09 L 283.93 239.32 A 1.22 1.21 -19.27 0 0 285.29 239.97 L 292.77 238.32 A 0.72 0.71 -33.57 0 0 293.03 237.04 Q 291.22 235.74, 287.77 235.34 Q 313.26 234.92, 322.25 235.23 C 333.21 235.6, 348.33 240.56, 351.12 252.52 A 6.88 6.55 -53.04 0 1 351.3 254.07 Q 351.28 260.91, 351.12 266.27 Q 351.05 268.58, 348.04 272.86 L 344.59 272.94 A 0.56 0.56 70.73 0 0 344.16 273.84 Q 345.25 275.27, 344.64 276.2 L 337.04 280.57 Q 326.32 284.21, 314.54 283.51 A 0.57 0.57 1.66 0 1 314.01 282.95 L 313.96 280.54 L 314.11 277.54 A 0.54 0.54 2.6 0 1 314.68 277.02 Q 323.42 277.46, 325.65 269.05 A 4.58 4.5 52.63 0 0 325.79 267.93 Q 325.76 257.47, 325.82 255.54 C 326.05 248.45, 324.64 243.28, 317.5 241.65 A 0.76 0.54 -28.36 0 0 317.33 241.63 L 309.65 241.61 A 0.54 0.54 -45.12 0 0 309.11 242.15 L 309.02 281.3 L 309.12 299.63 A 2.37 2.3 32.76 0 0 309.34 300.57 L 310.96 304 L 315.37 312.88 A 0.38 0.38 -12.73 0 1 315.02 313.43 L 297.72 313.35 L 296.63 311.25 A 0.33 0.33 53.52 0 0 296.1 311.17 L 293.85 313.48 L 278.6 313.48 A 0.46 0.45 -76.09 0 1 278.2 312.81 L 283.67 302.53 Q 285.39 292.01, 284.52 280.51 L 284.59 249.49 A 3.27 3.2 31.9 0 0 284.23 248.01 L 278.03 235.89 A 0.52 0.52 76.21 0 1 278.49 235.13 L 281.85 235.09 Z M 316.98 237.76 L 320.06 241.96 A 0.17 0.17 -46.85 0 0 320.3 241.99 L 320.36 241.94 A 2.32 2.25 53.7 0 0 320.8 238.74 L 320.27 238.02 A 2.32 2.25 53.7 0 0 317.08 237.48 L 317.02 237.53 A 0.17 0.17 67.72 0 0 316.98 237.76 Z M 308.84 238.52 Q 307.04 237.39, 306.04 237.68 A 2.44 2.21 -6.04 0 0 304.29 239.64 Q 303.94 243.21, 303.68 243.8 A 0.79 0.79 14.43 0 0 304.33 244.9 L 305.17 244.98 A 1.75 1.75 -81.72 0 0 307.06 243.57 C 307.39 241.81, 307.57 240.29, 308.88 239.25 A 0.45 0.45 -48.53 0 0 308.84 238.52 Z M 347.78 265.5 Q 349.15 264.55, 348.02 261.52 A 0.49 0.49 62.66 0 0 347.28 261.28 Q 345.75 262.33, 345.54 262.8 A 1.99 1.64 89.75 0 0 347.78 265.5 Z M 328.3 276.38 A 0.24 0.23 -4.38 0 0 328.05 276.67 Q 328.71 279.24, 330.54 279.87 A 1.15 1.14 12.37 0 0 332.06 278.9 L 332.19 277.66 A 0.89 0.89 5.52 0 0 331.39 276.69 L 328.3 276.38 Z M 300.97 285.69 Q 301.27 285.92, 303.18 285.24 A 0.89 0.88 84.69 0 0 303.76 284.53 Q 303.97 283.15, 303.29 282.64 Q 302.61 282.12, 301.34 282.69 A 0.89 0.88 -10.31 0 0 300.81 283.44 Q 300.67 285.46, 300.97 285.69 Z M 299.93 301.83 L 301.31 304.52 A 1.17 1.17 -19.65 0 0 302.6 305.13 L 304.38 304.73 A 0.46 0.46 53.89 0 0 304.51 303.88 L 300.32 301.46 A 0.28 0.28 -88.34 0 0 299.93 301.83 Z M 248.55 280.87 Q 247.58 292.37, 249.54 303.02 L 254.89 312.95 A 0.34 0.33 -13.83 0 1 254.59 313.44 L 218.34 313.44 A 0.63 0.63 13.4 0 1 217.78 312.53 L 222.19 303.73 Q 224.07 302.39, 223.85 299.41 L 223.91 280.58 L 223.91 250.25 A 3.99 3.99 31.28 0 0 223.48 248.49 L 217.59 236.97 A 0.55 0.55 -13.55 0 1 218.08 236.17 L 254.5 236.17 A 0.44 0.44 -76.86 0 1 254.89 236.8 L 248.84 249.01 A 3.84 3.75 58.73 0 0 248.45 250.69 L 248.55 280.87 Z"/>
  <path fill="#feef8b" fill-rule="nonzero" d="M 390.08 280.25 Q 377.79 280.01, 365.75 280.2 Q 358.47 280.32, 351.17 280.4 Q 351.08 280.4, 344.63 280.08 Q 341.06 279.91, 337.04 280.57 L 344.64 276.2 Q 345.89 278.91, 348.19 278.11 A 0.93 0.91 87.82 0 0 348.79 277.45 Q 349.42 274.8, 348.04 272.86 Q 351.05 268.58, 351.12 266.27 Q 351.28 260.91, 351.3 254.07 A 6.88 6.55 -53.04 0 0 351.12 252.52 C 348.33 240.56, 333.21 235.6, 322.25 235.23 Q 313.26 234.92, 287.77 235.34 Q 285.46 234.34, 283.22 231.67 A 1.59 1.58 -9.27 0 0 282.55 231.19 L 282.06 231.01 A 0.67 0.67 -0.99 0 0 281.2 231.9 Q 281.95 233.74, 281.85 235.09 L 278.49 235.13 A 0.52 0.52 76.21 0 0 278.03 235.89 L 284.23 248.01 A 3.27 3.2 31.9 0 1 284.59 249.49 L 284.52 280.51 L 265.43 280.62 Q 263.65 277.77, 261.11 281.48 Q 256.27 279.39, 248.55 280.87 L 248.45 250.69 A 3.84 3.75 58.73 0 1 248.84 249.01 L 254.89 236.8 A 0.44 0.44 -76.86 0 0 254.5 236.17 L 218.08 236.17 A 0.55 0.55 -13.55 0 0 217.59 236.97 L 223.48 248.49 A 3.99 3.99 31.28 0 1 223.91 250.25 L 223.91 280.58 L 177.1 280.3 A 1.12 1.11 -67.7 0 0 176.3 280.64 L 173.63 283.41 L 185.62 251.3 A 6.51 6.51 -15.43 0 1 186.66 249.47 L 197.62 235.77 A 0.36 0.36 -70.78 0 0 197.34 235.19 L 172.38 235.19 A 0.47 0.47 76.71 0 0 171.96 235.87 L 179.01 249.65 A 1.26 1.24 41.89 0 1 179.07 250.63 L 165.53 286.61 A 0.42 0.42 82.32 0 1 164.75 286.61 L 161.37 277.59 L 165.45 276.41 A 0.91 0.9 -20.88 0 0 166.02 275.15 Q 165.3 273.62, 164.02 272.46 A 1.41 1.4 -50.97 0 0 161.94 272.68 Q 161.34 273.53, 160.27 274.27 L 155.84 262.44 Q 158.77 262.43, 153.74 258.24 Q 154.04 258.59, 153.87 257.5 C 154.52 255.73, 158.64 254.08, 160.36 253.07 A 1.29 1.29 32.59 0 0 159.83 250.67 L 155.65 250.25 A 1.08 1.08 -80.02 0 0 154.5 251.06 L 153.32 255.86 L 151.3 250.9 A 1.78 1.77 -42.91 0 1 151.36 249.46 L 158.56 234.92 L 160.98 232.66 A 0.62 0.62 -73.28 0 0 160.41 231.6 Q 157.55 232.31, 154.55 231.59 A 0.81 0.81 13.42 0 0 153.58 232.18 L 152.82 235.14 L 141.86 235.3 Q 142.21 235.6, 141.33 235.44 Q 141.25 235.38, 141.12 235.29 A 0.49 0.47 62.86 0 0 140.83 235.19 L 114.17 235.19 A 0.34 0.34 -19.34 0 0 113.9 235.74 Q 118.13 240.97, 124.95 249.55 Q 125.45 250.18, 126.45 252.79 Q 131.96 267.18, 137.14 280.92 Q 129.09 280.02, 120.5 280.44 Q 119.19 280.5, 118.53 281.49 L 119.26 279.77 A 1.13 1.13 -83.03 0 0 118.05 278.22 Q 114.58 278.75, 112.25 280.54 L 101.83 280.42 A 0.89 0.87 -62.26 0 0 101.27 280.6 Q 100.54 281.14, 100.47 282.43 Q 99.64 279.4, 96.55 281.78 L 86.49 280.49 A 0.66 0.65 83.91 0 0 85.79 281.36 Q 87.5 286.08, 82.56 289.16 L 82.54 222.4 A 0.55 0.55 -60.02 0 1 83.09 221.85 L 259.76 221.85 A 0.83 0.82 80.61 0 1 260.54 222.42 Q 261.03 223.95, 260.22 225.5 A 0.68 0.61 -3.17 0 1 259.94 225.78 L 256.73 227.49 A 1.33 1.33 -54.14 0 0 257.13 229.98 Q 258.05 230.13, 260.12 229.56 A 1.66 1.63 10.25 0 0 261.02 228.95 C 262.1 227.52, 264.83 225.38, 264.47 222.78 A 0.82 0.82 -3.97 0 1 265.28 221.85 L 377.13 221.85 A 1.95 1.88 60.53 0 1 378.17 222.16 Q 379.2 222.8, 380.26 224.23 A 1.47 1.47 -60.44 0 0 382.9 223.5 L 382.98 222.65 A 0.96 0.95 -87 0 1 383.93 221.79 L 389.3 221.79 A 0.86 0.85 -90 0 1 390.15 222.65 L 390.08 280.25 Z M 210.7 232.62 L 216.6 231.78 A 0.97 0.97 -13.15 0 0 217.43 230.69 L 217.25 229.43 A 3.21 3.18 -8.1 0 0 213.62 226.73 L 212.16 226.94 A 3.21 3.18 -8.1 0 0 209.43 230.54 L 209.6 231.8 A 0.97 0.97 64.55 0 0 210.7 232.62 Z M 205.48 239.78 A 2.5 1.69 -55.9 0 0 202.68 240.9 A 2.5 1.69 -55.9 0 0 202.68 243.92 A 2.5 1.69 -55.9 0 0 205.48 242.8 A 2.5 1.69 -55.9 0 0 205.48 239.78 Z M 162.93 241.93 L 161.1 242.39 A 0.7 0.7 43.77 0 0 160.59 243.23 L 160.66 243.51 A 4.28 1.47 76 0 0 163.12 247.3 L 163.45 247.22 A 4.28 1.47 76 0 0 163.84 242.71 L 163.77 242.44 A 0.7 0.7 -12.91 0 0 162.93 241.93 Z M 98.96 249.52 Q 100.78 250.6, 104.43 249.92 A 1.44 1.43 -8.94 0 0 105.59 248.33 C 105.02 243.94, 100 240.76, 96.84 245.62 Q 95.64 247.47, 94.87 249.55 A 1.44 1.3 -76.36 0 0 95.9 251.45 Q 96.74 251.53, 97.73 249.84 A 0.9 0.89 -59.31 0 1 98.96 249.52 Z M 379.15 246.96 L 377.8 247.86 A 0.29 0.29 -26.96 0 0 377.72 248.26 L 380.45 252.34 A 4.02 0.94 56.2 0 0 383.47 255.16 L 383.74 254.98 A 4.02 0.94 56.2 0 0 382.28 251.12 L 379.55 247.04 A 0.29 0.29 63.51 0 0 379.15 246.96 Z M 166.79 261.17 L 169.57 259.59 A 2.05 2.04 33.41 0 1 170.79 259.34 L 172.79 259.54 A 0.7 0.7 5.92 0 0 173.55 258.93 Q 174.07 254.7, 171.52 252.63 C 170 251.4, 169.86 250.49, 169.05 248.71 A 0.92 0.91 -24.65 0 0 167.82 248.26 Q 164.62 249.74, 164.59 253.41 A 0.85 0.84 15.56 0 0 165.02 254.16 L 166.11 254.79 A 1.08 1.08 18.04 0 1 166.64 255.83 L 166.14 260.75 A 0.44 0.44 -11.99 0 0 166.79 261.17 Z M 190.96 271.84 A 1.67 1.67 -64.29 0 0 192.3 271.37 C 194.79 268.96, 193.02 264.83, 192.53 262.68 A 1.08 1.08 -9.34 0 1 193.48 261.36 Q 194.07 261.3, 194.84 260.94 A 1.56 1.56 1.09 0 0 195.61 260.2 Q 196.72 257.96, 197.85 256.38 A 1.92 1.91 -64.86 0 0 196.78 253.4 C 194.68 252.86, 192.91 255.11, 191.84 256.74 A 0.97 0.95 17.74 0 1 190.98 257.17 Q 190.46 257.14, 190.22 257.01 A 1.59 1.46 -83.21 0 0 188.1 258.83 Q 188.54 260.72, 188.92 261.56 A 1.48 1.43 -53.85 0 1 189.03 262.36 Q 188.3 267.8, 185.18 269.78 A 0.83 0.83 -58.34 0 0 185.54 271.3 L 190.96 271.84 Z M 163.29 263.7 L 161.22 259.66 A 0.47 0.47 -43.55 0 0 160.4 259.64 L 158.97 262.11 A 0.65 0.64 34.43 0 0 159.13 262.94 Q 160.56 264.07, 162.74 264.44 A 0.52 0.51 -8.47 0 0 163.29 263.7 Z M 374.03 268.07 A 0.94 0.94 19.43 0 0 372.58 268.76 L 372.29 271.65 A 0.43 0.43 -5.56 0 0 372.84 272.1 Q 375.4 271.35, 376.1 270.61 A 0.84 0.84 38.35 0 0 375.95 269.33 L 374.03 268.07 Z M 103.58 279.89 L 107.9 279.89 A 1.8 1.78 -79.52 0 0 109.57 278.73 L 111.28 274.17 A 0.67 0.67 -88.7 0 0 110.44 273.29 Q 109.05 273.75, 107.2 275.61 A 0.96 0.96 46.41 0 1 105.81 275.57 Q 104.92 274.6, 102.87 273.77 A 1.2 1.18 -84.77 0 1 102.17 272.92 Q 102.07 272.4, 102.17 271.91 A 1.08 1.08 61.45 0 0 100.11 271.3 L 98.71 275.04 A 0.83 0.83 16.38 0 0 99.32 276.15 Q 102.25 276.74, 102.96 279.41 A 0.65 0.64 82.31 0 0 103.58 279.89 Z M 120.23 273.59 L 122.91 278.59 A 0.16 0.16 30.82 0 0 123.13 278.66 L 123.19 278.62 A 2.76 2.47 61.8 0 0 124.06 275.02 L 123.84 274.6 A 2.76 2.47 61.8 0 0 120.36 273.34 L 120.29 273.37 A 0.16 0.16 51.7 0 0 120.23 273.59 Z M 313.96 280.54 L 309.02 281.3 L 309.11 242.15 A 0.54 0.54 45.01 0 1 309.65 241.61 L 317.33 241.63 A 0.76 0.54 -28.36 0 1 317.5 241.65 C 324.64 243.28, 326.05 248.45, 325.82 255.54 Q 325.76 257.47, 325.79 267.93 A 4.58 4.5 52.63 0 1 325.65 269.05 Q 323.42 277.46, 314.68 277.02 A 0.54 0.54 2.6 0 0 314.11 277.54 L 313.96 280.54 Z M 183.32 302.77 Q 183.62 302.6, 185.41 304.84 Q 186.19 305.82, 185.38 306.3 Q 184.57 306.78, 184.09 305.61 Q 183.02 302.95, 183.32 302.77 Z"/>
  <path fill="#fee060" fill-rule="nonzero" d="M 390.08 280.25 L 390.06 298.12 Q 367.55 298.21, 345.39 302.06 L 344.12 299.11 A 1.18 1.14 87.84 0 0 343.45 298.47 L 341.14 297.6 A 0.77 0.77 -82.79 0 0 340.1 298.41 L 340.48 301.77 C 331.08 297.6, 319.32 297.28, 310.96 304 L 309.34 300.57 A 2.37 2.3 32.76 0 1 309.12 299.63 L 309.02 281.3 L 313.96 280.54 L 314.01 282.95 A 0.57 0.57 1.66 0 0 314.54 283.51 Q 326.32 284.21, 337.04 280.57 Q 341.06 279.91, 344.63 280.08 Q 351.08 280.4, 351.17 280.4 Q 358.47 280.32, 365.75 280.2 Q 377.79 280.01, 390.08 280.25 Z M 223.91 280.58 L 223.85 299.41 Q 222.8 299.11, 221.6 300.69 Q 208.66 297.95, 195.53 298.16 C 184.3 298.34, 175.28 298.71, 165.43 305.1 L 173.63 283.41 L 176.3 280.64 A 1.12 1.11 -67.7 0 1 177.1 280.3 L 223.91 280.58 Z M 261.11 281.48 Q 262.26 285.07, 260.44 286.63 A 0.57 0.57 18.32 0 0 260.94 287.62 L 263 287.17 A 0.61 0.61 6.42 0 1 263.69 288.03 Q 261.48 292.58, 262.11 297.22 A 0.61 0.6 -23.14 0 0 263.09 297.61 L 263.39 297.35 A 2.41 2.39 -20.44 0 0 264.23 295.53 L 264.23 290.21 A 2.38 2.36 63.56 0 1 264.7 288.79 L 266.69 286.18 A 1.3 1.3 62.81 0 0 266.95 285.37 Q 266.9 283.06, 264.97 282.62 A 0.54 0.53 16.6 0 1 264.59 281.92 Q 264.8 281.34, 265.43 280.62 L 284.52 280.51 Q 285.39 292.01, 283.67 302.53 Q 279.99 298.44, 275.46 298.09 C 270.01 297.66, 262.38 297.71, 258.06 298.66 Q 253.55 299.65, 249.54 303.02 Q 247.58 292.37, 248.55 280.87 Q 256.27 279.39, 261.11 281.48 Z M 249.67 284.67 A 2.65 1.02 -159.3 0 0 251.79 286.56 A 2.65 1.02 -159.3 0 0 254.63 286.55 A 2.65 1.02 -159.3 0 0 252.51 284.66 A 2.65 1.02 -159.3 0 0 249.67 284.67 Z M 112.25 280.54 Q 116.29 282.93, 118.53 281.49 Q 119.19 280.5, 120.5 280.44 Q 129.09 280.02, 137.14 280.92 L 145.62 303.44 L 143.75 303.77 Q 125.08 300.93, 106.33 302.68 Q 100.03 303.26, 91.7 305.32 Q 92.3 301.8, 94.17 298.81 A 0.63 0.63 13.95 0 0 93.59 297.85 Q 91.79 297.98, 90.04 299.12 A 0.87 0.86 -23.11 0 0 89.67 300.03 L 90.75 304.66 Q 88.01 299.57, 82.58 302.91 L 82.56 289.16 Q 87.5 286.08, 85.79 281.36 A 0.66 0.65 83.91 0 1 86.49 280.49 L 96.55 281.78 L 94.88 286.22 A 0.61 0.61 -43.89 0 1 93.73 286.2 Q 93.38 285.11, 92.43 285.03 A 0.7 0.69 17.14 0 0 91.76 285.38 L 87.77 292.28 A 0.39 0.39 -70.05 0 0 88.04 292.86 Q 92.08 293.66, 93.55 290.47 A 2.86 2.81 -8.46 0 1 94.29 289.49 Q 98.16 286.26, 100.47 282.43 Q 100.54 281.14, 101.27 280.6 A 0.89 0.87 -62.26 0 1 101.83 280.42 L 112.25 280.54 Z M 133.61 282.45 A 1.01 1.01 0 0 0 132.19 282.31 L 132.13 282.36 A 1.01 1.01 0 0 0 131.99 283.79 L 134.51 286.85 A 1.01 1.01 0 0 0 135.93 286.99 L 135.99 286.94 A 1.01 1.01 0 0 0 136.13 285.51 L 133.61 282.45 Z M 104.91 291.08 Q 101.07 289.14, 96.75 290.11 A 2.23 2.21 86.59 0 0 95.03 292.06 L 94.97 292.6 A 0.97 0.97 85.07 0 0 96.19 293.63 Q 98.72 292.92, 101.02 293.13 A 1.92 1.91 -15.02 0 1 102.41 293.93 Q 102.79 294.46, 103.33 295.48 A 1.59 1.47 44.14 0 0 106.08 295.54 Q 107.06 293.34, 105.47 291.52 A 2.02 2 -6.59 0 0 104.91 291.08 Z M 116.77 325.54 A 0.33 0.33 47.11 0 1 116.79 324.96 Q 117.23 324.72, 117.92 324.88 A 0.46 0.43 -61.04 0 1 118.11 325.64 Q 117.65 326.1, 116.77 325.54 Z"/>
  <path fill="#fed42d" fill-rule="nonzero" d="M 283.67 302.53 L 278.2 312.81 A 0.46 0.45 -76.09 0 0 278.6 313.48 L 293.85 313.48 Q 293.53 314.58, 291.56 316.3 A 0.54 0.53 -63.54 0 0 291.87 317.24 Q 294.06 317.41, 296.44 318.74 A 1.79 1.79 -80.1 0 1 297.33 320.01 Q 297.74 322.49, 297.39 324.2 A 0.6 0.6 77.84 0 0 298.33 324.81 Q 299 324.32, 299.66 323.35 A 0.73 0.72 51.37 0 1 300.94 323.5 Q 301.21 324.21, 301.16 325.1 A 0.79 0.78 1.94 0 1 300.37 325.83 L 219.69 325.83 A 0.26 0.26 14.63 0 1 219.46 325.44 L 223.31 318.79 A 0.61 0.61 -42.94 0 0 223.33 318.24 C 220.99 313.01, 213.64 315.94, 210.58 318.96 A 0.64 0.63 54.85 0 0 210.46 319.7 L 213.28 325.21 A 0.4 0.39 -13.92 0 1 212.93 325.78 Q 201.55 325.96, 186.63 325.84 Q 184.89 325.83, 183.41 325.37 C 181.96 324.92, 180.61 325.86, 178.83 325.86 Q 152.38 325.9, 124.12 325.85 A 1.02 1.02 -86.73 0 1 123.11 324.71 Q 123.29 323.1, 121.38 321.86 Q 119.47 320.62, 117.55 322.57 A 0.34 0.34 58.77 0 1 116.98 322.43 Q 116.54 321.03, 116.49 320.99 Q 116.12 320.6, 115.15 320.51 Q 114.4 320.44, 111.8 320.59 A 1.05 1.04 -7.78 0 1 110.72 319.78 L 110.14 317.17 A 0.86 0.86 38.86 0 0 108.44 317.35 L 108.44 320.88 A 0.4 0.4 -70.12 0 1 107.78 321.19 Q 105.28 319.11, 100.75 317.97 A 0.73 0.72 29.43 0 0 100.06 318.16 Q 97.03 321.2, 98.13 325.09 A 0.58 0.58 -7.91 0 1 97.57 325.83 L 83.06 325.83 A 0.48 0.48 30.96 0 1 82.58 325.35 L 82.58 302.91 Q 88.01 299.57, 90.75 304.66 Q 91.37 305.59, 91.7 305.32 Q 100.03 303.26, 106.33 302.68 Q 125.08 300.93, 143.75 303.77 Q 143.57 306.53, 142.33 308.08 Q 141.06 309.67, 142.1 311.42 A 2.2 2.19 65.49 0 0 144.66 312.38 Q 146.6 311.74, 148.7 311.31 Q 148.77 312.29, 149.31 312.95 A 1.19 1.17 72.91 0 0 150.1 313.38 L 153.11 313.67 Q 154.38 315.68, 157.63 316.04 Q 158.99 316.19, 158.98 315.26 Q 158.98 314.55, 158.18 313.54 L 161.71 313.32 A 0.81 0.79 -80.52 0 0 162.4 312.81 L 165.43 305.1 C 175.28 298.71, 184.3 298.34, 195.53 298.16 Q 208.66 297.95, 221.6 300.69 Q 220.44 301.52, 219.75 302.49 A 0.66 0.65 -38.27 0 0 219.67 303.13 Q 220.12 304.21, 222.19 303.73 L 217.78 312.53 A 0.63 0.63 13.4 0 0 218.34 313.44 L 254.59 313.44 A 0.34 0.33 -13.83 0 0 254.89 312.95 L 249.54 303.02 Q 253.55 299.65, 258.06 298.66 C 262.38 297.71, 270.01 297.66, 275.46 298.09 Q 279.99 298.44, 283.67 302.53 Z M 185.38 306.3 Q 186.19 305.82, 185.41 304.84 Q 183.62 302.6, 183.32 302.77 Q 183.02 302.95, 184.09 305.61 Q 184.57 306.78, 185.38 306.3 Z M 84.24 310.83 L 85.91 311.05 A 0.5 0.5 -86.61 0 0 86.47 310.62 L 86.62 309.49 A 3.4 1.14 -82.6 0 0 85.92 305.97 L 85.53 305.92 A 3.4 1.14 -82.6 0 0 83.96 309.14 L 83.81 310.27 A 0.5 0.5 26.76 0 0 84.24 310.83 Z M 193 311.44 L 188.26 310.7 A 0.49 0.49 -14.09 0 0 187.7 311.11 L 187.67 311.29 A 2.89 2.85 -81.2 0 0 190.05 314.58 L 190.13 314.6 A 2.89 2.85 -81.2 0 0 193.39 312.18 L 193.41 312 A 0.49 0.49 13.05 0 0 193 311.44 Z M 83.14 313.11 L 83.14 314.79 A 1.39 1.38 -87.27 0 0 84.39 316.17 L 86.13 316.34 A 0.69 0.69 75.18 0 0 86.76 315.25 L 84.84 312.57 A 0.94 0.94 27.3 0 0 83.14 313.11 Z M 127.47 319.94 A 0.49 0.49 51.03 0 0 127.57 318.99 Q 126.59 318.61, 125.81 317.9 A 0.64 0.64 -46.56 0 1 125.79 316.99 Q 126.31 316.45, 126.6 315.83 A 0.53 0.52 -66.78 0 0 126.32 315.11 L 122.18 313.55 A 1.25 1.25 10.24 0 0 120.49 314.72 L 120.49 317.56 A 2.16 2.15 -80.2 0 0 121.92 319.59 Q 124.21 320.42, 127.47 319.94 Z M 252.03 319.77 L 254.9 318.11 A 0.22 0.22 -32.04 0 0 254.98 317.81 L 254.9 317.66 A 3.75 1.85 60 0 0 251.42 315.34 L 251.37 315.37 A 3.75 1.85 60 0 0 251.64 319.54 L 251.73 319.69 A 0.22 0.22 84.25 0 0 252.03 319.77 Z M 340.48 301.77 C 341.26 304.64, 343.92 305.39, 346.25 306.41 A 0.98 0.98 -1.79 0 1 346.73 306.86 L 348.39 310.09 A 0.98 0.97 62.78 0 0 349.71 310.52 L 351.14 309.79 A 1.24 1.24 63.75 0 0 351.7 308.14 C 350.16 304.93, 347.23 304.29, 345.39 302.06 Q 367.55 298.21, 390.06 298.12 L 390 325.01 A 0.82 0.82 -89.65 0 1 389.18 325.82 L 383.13 325.8 A 0.78 0.78 0.37 0 1 382.36 325.02 Q 382.36 324.43, 381.76 322.93 C 379.45 317.09, 371.88 322.2, 376.55 325.04 A 0.42 0.42 60.45 0 1 376.34 325.82 L 353.63 325.82 A 4.71 4.7 57.98 0 1 351.56 325.34 Q 347.85 323.54, 340.97 320.65 Q 339.23 319.92, 337.71 320.21 C 334.79 320.75, 335.95 323.49, 336.72 325.07 A 0.52 0.52 77.15 0 1 336.25 325.82 L 314.77 325.82 A 2.15 2.04 -30.6 0 1 313.85 325.61 L 312.77 325.09 A 1.23 1.21 -43.01 0 0 311.73 325.06 Q 309.23 326.12, 305.27 325.72 A 0.65 0.64 -10.41 0 1 304.74 325.36 L 303.86 323.65 A 0.88 0.87 65.32 0 1 304.3 322.44 Q 307.07 321.29, 307.87 318.57 A 1.25 1.24 -78.06 0 0 306.84 316.98 Q 305.94 316.86, 301.1 316.12 Q 298.23 315.69, 297.72 313.35 L 315.02 313.43 A 0.38 0.38 -12.73 0 0 315.37 312.88 L 310.96 304 C 319.32 297.28, 331.08 297.6, 340.48 301.77 Z M 344.67 319.15 A 1.06 1.05 -3.16 0 0 346.14 320.46 L 350.94 318 A 1.45 1.44 -39.21 0 0 351.19 315.59 L 347.58 312.7 A 0.35 0.34 29.06 0 0 347.04 312.85 L 344.67 319.15 Z M 369.48 317.91 Q 371.59 317.75, 373.1 318.12 A 0.66 0.65 0.3 0 0 373.89 317.34 L 372.98 313.23 A 0.34 0.34 58.26 0 0 372.39 313.09 L 369.1 317.2 A 0.44 0.44 16.95 0 0 369.48 317.91 Z M 111.15 325.28 A 0.26 0.26 -24.76 0 1 110.98 325.74 L 103.12 325.74 A 0.41 0.41 -58.97 0 1 102.93 324.97 Q 103.72 324.55, 104.06 324.01 A 1.45 1.44 12.03 0 1 105.1 323.34 Q 108.38 322.9, 111.15 325.28 Z"/>
</svg>